<svg width="320" height="132" viewBox="0 0 320 132" fill="none" xmlns="http://www.w3.org/2000/svg">
<path fill-rule="evenodd" clip-rule="evenodd" d="M90.386 83.6383L80.0702 82.1956C80.0702 79.3101 81.2983 76.4245 81.7895 73.2985C82.2808 70.1725 83.0176 62.9587 83.2632 57.909C83.2632 45.405 83.2632 33.8629 82.0351 21.1185C82.3283 19.0139 81.7555 16.8816 80.4427 15.1905C79.1299 13.4994 77.1848 12.3882 75.0351 12.1012C72.8855 11.8142 70.7074 12.375 68.9801 13.6602C67.2528 14.9454 66.1177 16.8498 65.8246 18.9543C61.8948 30.7369 57.2281 41.7981 54.0351 54.0616C52.676 59.1968 51.6911 64.4199 51.0877 69.6916C51.0877 72.3367 51.0877 74.9817 51.0877 77.6268L42.9825 74.7413C21.614 62.9587 31.193 71.3748 41.5088 56.7067L67.5439 13.6642C68.8484 11.9629 69.4242 9.83083 69.149 7.72066C68.8739 5.61048 67.7694 3.6884 66.0702 2.36252C64.4022 1.07236 62.2832 0.475406 60.1698 0.700299C58.0564 0.925192 56.1179 1.95393 54.772 3.56483L18.9123 39.3935C15.2281 43.2409 11.0526 46.8478 7.85966 50.4547C3.58859 54.9869 0.844652 60.6954 0 66.8061C0 75.4627 1.22807 85.562 16.9474 94.4591L33.4035 100.711L50.1053 103.116C50.1053 109.608 50.1053 116.101 50.1053 122.353C50.0085 123.521 50.1478 124.697 50.5151 125.812C50.8824 126.928 51.4705 127.962 52.246 128.855C53.0215 129.748 53.969 130.483 55.0345 131.018C56.1001 131.552 57.2628 131.876 58.4562 131.971C59.6496 132.066 60.8504 131.929 61.99 131.57C63.1296 131.21 64.1857 130.634 65.098 129.875C66.0103 129.116 66.7609 128.188 67.307 127.145C67.8531 126.102 68.184 124.964 68.2807 123.795C70 116.341 71.965 109.368 73.6843 102.154H86.9474C89.3856 102.355 91.807 101.612 93.6905 100.082C95.5739 98.5533 96.7687 96.3612 97.0176 93.9782C97.4679 91.7518 97.032 89.441 95.7993 87.5189C94.5665 85.5968 92.63 84.2085 90.386 83.6383Z" fill="#6F879A" fill-opacity="0.2"/>
<path fill-rule="evenodd" clip-rule="evenodd" d="M309.722 78.5884H299.407C299.407 75.7029 299.407 72.5769 299.407 69.6913C299.774 64.4876 299.774 59.2651 299.407 54.0614C297.933 41.5574 295.231 30.0153 293.021 17.7518C293.021 15.6472 292.167 13.6289 290.647 12.1407C289.127 10.6526 287.065 9.81655 284.915 9.81655C282.766 9.81655 280.704 10.6526 279.184 12.1407C277.664 13.6289 276.81 15.6472 276.81 17.7518C274.6 30.0153 271.407 41.7979 269.933 54.3018C269.559 59.5054 269.559 64.7282 269.933 69.9318V77.867L261.582 76.1838C238.494 67.2867 249.301 74.5006 257.652 58.3897L277.793 12.4616C278.366 11.5846 278.752 10.6026 278.927 9.57524C279.102 8.54788 279.061 7.49651 278.809 6.4848C278.556 5.4731 278.096 4.52213 277.457 3.6895C276.818 2.85688 276.013 2.15993 275.091 1.64088C273.248 0.632457 271.084 0.344666 269.033 0.835412C266.983 1.32616 265.198 2.55902 264.038 4.28594L232.845 43.0002C229.652 47.3285 225.968 51.4163 223.266 55.5042C219.817 60.5791 217.863 66.486 217.617 72.5769C217.894 78.4144 220.069 84.0126 223.824 88.5547C227.58 93.0968 232.72 96.345 238.494 97.8253L255.442 101.913H273.126C274.354 108.165 275.337 114.417 276.81 120.91C276.81 123.269 277.768 125.532 279.472 127.201C281.176 128.869 283.488 129.807 285.898 129.807C288.308 129.807 290.62 128.869 292.324 127.201C294.028 125.532 294.986 123.269 294.986 120.91C294.986 113.455 296.459 106.001 297.442 98.7871L310.459 96.3825C311.663 96.3843 312.854 96.1455 313.961 95.6807C315.067 95.2159 316.064 94.5349 316.892 93.6795C317.72 92.824 318.36 91.812 318.775 90.7056C319.189 89.5992 319.368 88.4216 319.301 87.245C319.27 86.0554 318.996 84.884 318.494 83.8001C317.993 82.7162 317.274 81.7419 316.381 80.9347C315.488 80.1276 314.438 79.504 313.294 79.101C312.151 78.698 310.936 78.5237 309.722 78.5884Z" fill="#6F879A" fill-opacity="0.2"/>
<path fill-rule="evenodd" clip-rule="evenodd" d="M188.384 31.9389C170.946 19.9158 161.121 23.2823 142.946 31.9389C135.853 35.658 129.59 40.7267 124.525 46.8475C117.28 54.9987 112.518 64.9773 110.781 75.6475C109.045 86.3178 110.402 97.2512 114.7 107.203C118.326 114.797 124.198 121.149 131.556 125.437C138.913 129.724 147.416 131.749 155.963 131.249C165.216 130.687 174.166 127.804 181.951 122.877C189.737 117.95 196.097 111.145 200.419 103.115C204.632 95.889 207.304 87.9016 208.275 79.6357C209.246 71.3698 208.496 62.997 206.069 55.0231C202.726 45.7377 196.554 37.6801 188.384 31.9389ZM175.612 87.4854C173.561 91.0478 170.656 94.0689 167.147 96.2889C163.639 98.5089 159.632 99.8613 155.472 100.23C151.694 100.705 147.868 99.8213 144.706 97.7425C141.544 95.6638 139.26 92.5316 138.279 88.9281C136.534 84.0756 135.914 78.9032 136.467 73.7871C137.019 68.6709 138.729 63.7396 141.472 59.3515C162.595 27.1297 181.016 50.2139 183.226 60.5537C184.432 70.1639 181.694 79.8499 175.612 87.4854Z" fill="#6F879A" fill-opacity="0.2"/>
</svg>
