<svg width="16" height="16" viewBox="0 0 16 16" fill="none" xmlns="http://www.w3.org/2000/svg">
<path d="M4.53033 5.46967C4.23744 5.17678 3.76256 5.17678 3.46967 5.46967C3.17678 5.76256 3.17678 6.23744 3.46967 6.53033L4.53033 5.46967ZM12.5303 6.53033C12.8232 6.23744 12.8232 5.76256 12.5303 5.46967C12.2374 5.17678 11.7626 5.17678 11.4697 5.46967L12.5303 6.53033ZM3.46967 6.53033L7.25754 10.3182L8.3182 9.25754L4.53033 5.46967L3.46967 6.53033ZM8.74246 10.3182L12.5303 6.53033L11.4697 5.46967L7.6818 9.25754L8.74246 10.3182ZM7.25754 10.3182C7.66759 10.7282 8.33241 10.7282 8.74246 10.3182L7.6818 9.25754C7.85754 9.0818 8.14246 9.0818 8.3182 9.25754L7.25754 10.3182Z" fill="#121212"/>
</svg>
