<svg width="56" height="56" viewBox="0 0 56 56" fill="none" xmlns="http://www.w3.org/2000/svg">
<path fill-rule="evenodd" clip-rule="evenodd" d="M15.1219 0.0758052C14.0393 0.46944 13.2364 1.71466 12.7331 3.78054C12.6219 4.23714 12.5607 4.57721 12.4142 5.55379C12.2574 6.59888 12.2088 8.05591 12.2833 9.47337C12.3242 10.2514 12.3852 11.0968 12.4188 11.3519C12.6046 12.7617 12.6649 13.1027 12.8844 13.9802C13.1529 15.0533 13.3108 15.5002 13.7448 16.4158C14.9297 18.9152 16.9216 20.7275 19.2769 21.4491C20.2095 21.7349 20.4702 21.7728 21.4621 21.7665C22.2452 21.7615 22.5044 21.7358 22.9086 21.6233C23.4957 21.4599 24.0442 21.2256 24.397 20.9875C24.5385 20.892 24.6701 20.8139 24.6893 20.8139C24.7085 20.8139 24.8939 21.1688 25.1013 21.6024C25.8734 23.2166 25.915 23.3294 25.7555 23.3758C25.7132 23.3882 25.4016 23.4595 25.063 23.5344C23.0909 23.9707 21.0809 24.9246 19.3384 26.2513C18.6699 26.7603 17.0235 28.382 16.8675 28.6851C16.7386 28.9354 16.7959 29.2587 17.0086 29.4817C17.3283 29.8171 17.6551 29.7051 18.569 28.947C18.8229 28.7364 19.1553 28.4889 19.3076 28.3971C19.46 28.3052 19.7785 28.1053 20.0155 27.9528C20.3677 27.7261 22.0231 26.8746 22.1115 26.8746C22.1251 26.8746 22.3099 26.7953 22.5224 26.6984C22.7348 26.6014 23.0748 26.4733 23.2779 26.4137C23.4811 26.3541 23.7165 26.2825 23.8012 26.2545C24.3411 26.0762 25.7036 25.8776 26.4083 25.8744C27.2525 25.8707 27.8174 26.0321 29.0641 26.633C29.9336 27.0522 30.8221 27.5741 31.9747 28.343C33.5528 29.3957 34.3419 30.1936 35.2943 31.6992C35.7324 32.3918 35.8755 32.6601 36.3541 33.6848C36.5222 34.0449 36.7902 34.2049 37.145 34.1571C37.7429 34.0765 37.9853 33.5798 37.7192 32.981C37.655 32.8368 37.5002 32.4405 37.3749 32.1004C37.1093 31.3789 37.0448 31.228 36.7011 30.5234C35.8015 28.6795 34.2249 26.7829 32.542 25.5203C31.8658 25.0131 31.8975 25.0693 32.1037 24.7427C32.4162 24.2477 32.505 23.8877 32.5007 23.1331C32.4971 22.5087 32.4811 22.4182 32.3061 22.0315C32.1945 21.7851 31.9536 21.4258 31.7254 21.1657C31.2426 20.6152 31.1623 20.4872 31.0394 20.0713C30.8528 19.4401 30.9586 18.5579 31.308 17.83C31.8132 16.7775 33.2575 15.7411 34.8195 15.3101C34.9718 15.2681 35.1657 15.2091 35.2504 15.1792C35.3965 15.1274 35.9469 15.0044 36.9739 14.7938C37.8078 14.6228 40.1223 14.3582 40.483 14.3926L40.698 14.4131L40.6777 15.0625C40.6168 17.0161 40.2887 18.6792 39.604 20.5047C39.2117 21.5506 38.8823 22.076 38.2191 22.7139C37.3001 23.5976 36.2153 23.8829 35.2138 23.5041C34.9866 23.4182 34.7117 23.2927 34.6028 23.2251C34.0813 22.9013 33.3515 23.2346 33.3443 23.7999C33.3396 24.1759 33.4814 24.3561 33.9944 24.6255C35.0204 25.1644 36.1972 25.4149 37.0181 25.2691C37.7512 25.1388 38.1749 24.9824 38.8845 24.5797C39.5182 24.22 40.3935 23.3055 40.9794 22.3909C41.7868 21.1308 42.5322 19.15 42.876 17.3507C43.0143 16.6273 43.2466 15.0768 43.38 13.9877C43.4129 13.7197 43.4534 13.4782 43.4702 13.451C43.5012 13.4005 43.4175 12.9784 43.2992 12.5887C43.0837 11.8793 42.5445 11.6673 40.9442 11.6629C40.0837 11.6605 39.477 11.7112 38.7282 11.8484C38.559 11.8793 38.2266 11.9372 37.9896 11.977C37.182 12.1124 35.4565 12.6294 34.7272 12.9545C34.6595 12.9846 34.4656 13.0711 34.2963 13.1465C33.0461 13.7037 32.3078 14.1523 31.4972 14.8471C30.6692 15.5568 30.2517 16.0686 29.8373 16.8819C29.386 17.7675 29.2507 18.4098 29.2985 19.4398C29.3659 20.8931 29.7767 21.9866 30.3598 22.2646C30.4766 22.3203 30.5722 22.4001 30.5722 22.4419C30.5722 22.5141 30.4081 22.7885 30.3252 22.8548C30.304 22.8718 30.1751 23.0388 30.0386 23.2259C29.7502 23.6218 29.6162 23.7458 29.533 23.6941C29.5 23.6737 29.204 23.5884 28.875 23.5045C28.5459 23.4206 28.2702 23.3445 28.2623 23.3354C28.2544 23.3261 28.1712 23.0681 28.0774 22.762C27.6888 21.4935 27.4086 20.6799 27.1827 20.1646C27.0821 19.935 26.8652 19.3618 26.8159 19.1951C26.7704 19.0411 26.7892 19.0186 27.0846 18.873C27.9537 18.4449 28.6782 17.1628 28.9737 15.53C29.0831 14.9253 29.0661 13.1283 28.9443 12.4341C28.6186 10.5775 27.9136 8.908 26.8053 7.36908C26.4011 6.80779 25.8779 6.19603 25.5247 5.87172C24.4179 4.85545 23.7318 4.3103 22.7239 3.64628C22.4192 3.44554 22.1401 3.25345 22.1035 3.21944C21.8282 2.96303 19.074 1.33952 18.2304 0.936421C17.1543 0.422129 16.9367 0.32788 16.4901 0.182671C15.8656 -0.020485 15.4714 -0.0512833 15.1219 0.0758052ZM17.1656 3.40008C17.4961 3.4892 17.8217 3.59248 18.0458 3.67937C18.3073 3.78073 19.6207 4.43528 19.9933 4.64988C20.2086 4.774 20.4482 4.90993 20.5257 4.95199C20.8201 5.11191 22.2833 6.07575 22.6192 6.33104C22.8122 6.47773 23.1225 6.7123 23.3087 6.85238C23.4949 6.99239 23.6611 7.12282 23.678 7.1423C23.695 7.16172 23.8196 7.27223 23.955 7.38782C24.4153 7.78077 25.2273 8.7216 25.6149 9.31103C26.6542 10.8916 27.1268 12.2449 27.3103 14.1658C27.3771 14.8658 27.3738 14.9277 27.2516 15.2559C27.0913 15.6861 26.6107 16.4898 26.1495 17.0989C25.1812 18.3775 23.8414 19.3937 22.6932 19.7201C21.9738 19.9246 21.8314 19.9481 21.3129 19.9481C20.5762 19.9481 19.8967 19.7943 19.1845 19.4664C18.2784 19.0492 17.3728 18.3341 16.7909 17.5763C16.5367 17.2453 16.0176 16.4099 15.882 16.1138C15.4295 15.1251 15.1158 14.0964 14.9393 13.0216C14.8287 12.348 14.6924 10.7371 14.6935 10.115C14.6952 9.14381 14.9169 6.5956 15.0917 5.53857C15.2868 4.35971 15.3906 3.87065 15.4824 3.69922C15.6726 3.34393 16.4468 3.20639 17.1656 3.40008ZM17.7937 8.69909C17.7075 8.79476 17.6764 8.92185 17.6764 9.17838V9.52748L19.3436 11.9394C20.2605 13.2659 21.2967 14.7966 21.6462 15.3408C23.2254 17.7999 23.1322 17.6695 23.3979 17.7908C24.3526 18.2265 25.225 17.3463 24.8822 16.2932C24.7642 15.931 24.1 14.732 23.6876 14.1371C22.5981 12.5651 22.2543 12.1494 21.0004 10.887C20.0842 9.96453 19.633 9.55049 18.9383 8.99439C18.3858 8.55215 18.0127 8.45592 17.7937 8.69909ZM35.7736 18.3873C35.672 18.4399 35.3396 18.6365 35.0349 18.8239C34.7302 19.0114 34.2214 19.3138 33.9041 19.4959C33.2637 19.8636 32.6584 20.3332 32.5322 20.5604C32.4867 20.6421 32.4496 20.8809 32.4496 21.0909C32.4496 21.4104 32.4768 21.5086 32.6155 21.6913C32.9158 22.0869 33.5163 22.2628 34.0521 22.1121C34.2448 22.0579 34.4401 21.9284 34.683 21.694C34.8766 21.5073 35.4643 20.964 35.989 20.4868C37.2577 19.3332 37.3951 19.163 37.2864 18.8808C37.2172 18.7012 36.9795 18.4359 36.8087 18.3477C36.6186 18.2496 35.9929 18.2735 35.7736 18.3873ZM13.3676 29.5785C12.6113 29.886 12.0763 30.4925 11.6612 31.5129C11.1692 32.7224 10.9998 33.5857 11 34.8834C11.0002 36.4225 11.3149 38.0792 11.8576 39.3979C12.0656 39.9033 12.4709 40.8098 12.5488 40.944C12.5884 41.0121 12.7446 41.2881 12.8959 41.5574C13.171 42.0469 14.0206 43.315 14.308 43.6651C14.6218 44.0475 15.72 45.1622 16.0756 45.4595C16.2785 45.629 16.4809 45.8022 16.5253 45.8442C16.9644 46.259 18.4736 47.2607 19.4 47.7521C20.5899 48.3833 21.2708 48.892 21.4104 49.2541C21.4507 49.3585 21.4661 50.411 21.4537 52.1996C21.4323 55.2593 21.4203 55.1521 21.8107 55.3633C22.0007 55.4662 22.0155 55.466 22.1321 55.36C22.3242 55.1853 22.5377 54.6858 22.7426 53.9312C22.856 53.5137 22.886 53.2821 22.9389 52.416C22.967 51.9568 23.0368 51.1498 23.0941 50.6225C23.2176 49.487 23.1883 48.7765 23.0006 48.3501C22.8654 48.043 22.4799 47.5446 22.1786 47.2872C22.0817 47.2045 21.969 47.1032 21.9281 47.0621C21.8118 46.9452 20.3933 45.8851 20.0323 45.6451C18.6112 44.7008 17.7451 43.9684 17.0236 43.1006C16.3008 42.2314 15.44 40.8867 14.9304 39.8308C14.2325 38.3849 13.9861 37.6543 13.6513 36.0382C13.5516 35.5574 13.5643 33.7937 13.6709 33.3063C13.8023 32.7055 14.0142 32.1136 14.1207 32.0497C14.2183 31.9911 14.9741 32.1492 15.1301 32.2609C15.4179 32.4667 15.8859 33.33 16.0489 33.9557C16.0755 34.0577 16.1563 34.3639 16.2285 34.636C16.3829 35.218 16.4113 35.3291 16.6554 36.3059C17.2365 38.6316 17.8692 39.8065 19.2348 41.0959C19.6303 41.4694 20.0648 41.917 20.2002 42.0905C20.4777 42.4463 20.9174 42.7927 21.1679 42.8531C21.3947 42.9079 21.8408 42.8001 21.9374 42.6673C22.0534 42.508 22.034 42.3104 21.8687 41.9661C21.742 41.7023 21.0803 40.6945 20.9743 40.6039C20.9544 40.5869 20.8562 40.4616 20.7561 40.3256C20.6559 40.1895 20.5343 40.0373 20.4857 39.9874C20.3498 39.8475 19.3692 38.5125 19.3692 38.4674C19.3692 38.4455 19.3182 38.3536 19.2559 38.2633C19.0305 37.9369 18.6664 36.9591 18.4692 36.1511C18.3135 35.5134 18.3131 34.0332 18.4684 33.5846C18.652 33.0543 18.8271 32.7545 19.1016 32.5003C19.3388 32.2806 19.3995 32.255 19.6837 32.255C20.0593 32.255 20.3054 32.3885 20.6456 32.7768C20.896 33.0626 21.3906 34.0253 21.5214 34.4814C21.6063 34.7775 21.7266 35.1273 22.2018 36.4604C22.3655 36.9196 22.5731 37.504 22.6633 37.7591C22.7534 38.0142 22.8662 38.3106 22.914 38.4178C22.9619 38.5249 23.0009 38.6285 23.0009 38.6478C23.0009 38.6817 23.1197 38.9533 23.5001 39.7888C23.598 40.0038 23.678 40.1909 23.678 40.2047C23.678 40.2185 23.7611 40.412 23.8627 40.6348C23.9643 40.8576 24.0474 41.0539 24.0474 41.071C24.0474 41.0881 24.1456 41.3102 24.2657 41.5644C24.4471 41.9484 24.5257 42.0481 24.7296 42.1526C24.9061 42.243 25.0346 42.2672 25.1866 42.2386C25.4465 42.1896 25.9556 41.8735 25.9556 41.7611C25.9556 41.6786 25.7583 40.8245 25.6455 40.4184C25.5389 40.035 25.0548 38.0484 24.9824 37.6972C24.9438 37.5102 24.8246 36.9397 24.7174 36.4294C24.4389 35.1036 24.4367 35.0554 24.6363 34.6961C25.0922 33.8758 25.8002 33.1008 26.2397 32.9412C26.725 32.7648 26.8209 32.9313 27.465 35.0689C27.7087 35.8776 27.9044 36.4831 27.9847 36.6768C28.0129 36.7448 28.0707 36.8979 28.1132 37.017C28.3202 37.5977 28.976 38.8538 29.4353 39.5493C30.019 40.4332 30.5417 41.008 30.835 41.0884C31.0962 41.1602 31.4114 41.0352 31.6324 40.7723C31.8753 40.4833 31.8573 40.2222 31.556 39.6676C30.8301 38.3312 30.3889 37.204 30.0223 35.7492C29.8611 35.1098 29.8226 34.9043 29.6457 33.7392C29.4909 32.7199 29.0989 31.8941 28.4638 31.2498C26.9555 29.7193 24.9775 30.1636 23.6369 32.3342C23.4659 32.6109 23.4483 32.6228 23.3602 32.5197C23.3086 32.4591 23.1774 32.2505 23.0687 32.0559C22.357 30.7825 21.6263 30.3207 20.3233 30.3209C19.3457 30.3211 18.6307 30.6322 17.9025 31.3743C17.6882 31.5926 17.4959 31.7541 17.4751 31.7332C17.4542 31.7123 17.3802 31.6011 17.3106 31.4861C16.8185 30.6737 16.3307 30.2018 15.6451 29.8753C14.8295 29.487 13.893 29.3649 13.3676 29.5785ZM39.9901 33.1029C38.8821 33.2984 37.6175 34.3756 37.1358 35.5341C37.0725 35.6865 36.9974 35.8667 36.9688 35.9347C36.9403 36.0027 36.8174 36.4341 36.6957 36.8933C36.0766 39.2298 35.4895 40.3876 34.6084 41.0098C34.0269 41.4203 33.7349 41.4685 32.9421 41.2843C32.5132 41.1847 32.3234 41.2674 32.1672 41.6223C32.0465 41.8964 32.0464 41.9015 32.1641 42.1333C32.4836 42.7623 33.8117 43.0279 34.8639 42.673C35.3815 42.4985 36.0857 42.042 36.4615 41.6376C37.3204 40.7132 37.9092 39.6258 38.7625 37.388C39.2391 36.1383 39.5627 35.6715 40.0363 35.5507C40.6984 35.3819 41.304 36.1048 41.4978 37.2952C41.635 38.1382 41.624 38.3812 41.3958 39.5525C41.1405 40.8634 40.1739 42.8115 39.2712 43.8347C38.9159 44.2375 37.7754 45.3686 36.8232 46.2626C35.9717 47.0619 35.5057 47.6118 35.3381 48.0148C35.0726 48.6533 35.4107 50.989 36.0758 53.111C36.3353 53.9387 36.7011 54.3332 37.2091 54.3332C37.4312 54.3332 37.5099 54.2994 37.6571 54.1411C37.8681 53.9141 37.8908 53.6194 37.7407 53.0529C37.6884 52.8557 37.6209 52.583 37.5907 52.4469C37.5605 52.3109 37.5062 52.0882 37.4699 51.9522C37.3706 51.5794 37.1266 49.9154 37.057 49.1359L37.0208 48.7315L37.4908 48.4982C37.8569 48.3163 38.1203 48.1116 38.6831 47.5714C39.0803 47.19 39.5577 46.7625 39.7439 46.6211C40.6426 45.9391 41.8512 44.564 42.4691 43.5204C43.5708 41.6597 44.1135 39.7557 44.032 38.0374C43.9802 36.9463 43.8809 36.4403 43.5484 35.5723C43.0072 34.1601 42.1709 33.321 41.1051 33.1211C40.7751 33.0593 40.2833 33.0512 39.9901 33.1029Z" fill="#3C8F73"/>
</svg>
