<svg width="90" height="90" viewBox="0 0 90 90" fill="none" xmlns="http://www.w3.org/2000/svg">
<path d="M88 45.0547C88.5523 45.0547 89.0012 45.5026 88.9887 46.0547C88.7988 54.4075 86.2341 62.5414 81.5847 69.4998C76.7499 76.7355 69.878 82.3751 61.8381 85.7054C53.7981 89.0356 44.9512 89.907 36.416 88.2092C27.8809 86.5115 20.0408 82.3209 13.8873 76.1674C7.73381 70.0139 3.54322 62.1738 1.84547 53.6387C0.147718 45.1035 1.01906 36.2566 4.34932 28.2166C7.67958 20.1767 13.3192 13.3048 20.5549 8.47002C27.5133 3.82061 35.6472 1.25588 44 1.06605C44.5521 1.0535 45 1.5024 45 2.05469V2.09329C45 2.64558 44.5521 3.09205 44 3.10521C36.0505 3.29465 28.3106 5.73966 21.6875 10.1651C14.787 14.7758 9.40871 21.3293 6.23275 28.9968C3.05679 36.6642 2.22581 45.1012 3.8449 53.2409C5.46399 61.3807 9.46043 68.8575 15.3288 74.7259C21.1972 80.5943 28.674 84.5907 36.8138 86.2098C44.9535 87.8289 53.3905 86.9979 61.0579 83.822C68.7254 80.646 75.2789 75.2677 79.8896 68.3672C84.315 61.7441 86.76 54.0042 86.9495 46.0547C86.9627 45.5026 87.4091 45.0547 87.9614 45.0547H88Z" fill="#1771DC" stroke="#1771DC" stroke-width="0.3"/>
</svg>
