<svg width="621" height="715" viewBox="0 0 621 715" fill="none" xmlns="http://www.w3.org/2000/svg">
<path opacity="0.04" d="M192.292 30.5982C199.082 -3.10195 178.778 -5.19838 154.05 9.04144C106.5 36.4235 75.56 84.4791 61.8737 121.446C52.9626 145.514 57.3976 164.925 75.8041 177.287C89.9093 186.76 113.913 187.139 141.473 179.041C179.179 167.963 225.856 142.319 247.408 135.671C248.319 135.388 249.534 135.154 250.926 134.983C244.995 140.875 237.252 147.141 229.039 154.076C188.313 188.47 131.132 225.915 108.608 249.296C102.562 255.596 63.0954 295.728 55.0774 315.518C48.0359 332.897 51.7378 346.47 58.4483 355.205C66.818 366.102 79.151 371.846 94.6634 371.367C118.071 370.64 154.254 349.409 167.125 343.644C218.583 320.31 268.089 293.475 319.088 269.965C340.164 260.249 361.486 251.075 383.358 243.068C388.075 241.342 407.473 232.619 426.051 228.073C427.345 227.756 428.792 227.474 430.285 227.239C426.897 232.288 422.298 236.812 417.388 241.132C397.037 259.027 369.699 271.948 352.058 282.59C302.561 312.384 251.05 339.567 201.684 370.383C167.577 391.671 134.442 414.613 103.735 441.526C85.4636 456.875 38.4988 499.485 15.8664 538.214C-1.81894 568.479 -3.97117 597.787 9.84121 620.331C20.9053 638.414 42.1023 646.522 68.0849 646.192C104.373 645.729 152.166 625.758 169.815 617.047C202.831 600.255 235.242 581.24 266.59 559.767C310.819 529.472 353.081 495.211 398.562 468.159C416.748 457.343 435.258 447.352 454.473 439.023C464.018 434.946 496.945 419.263 528.17 410.619C536.708 408.257 546.873 410.291 554.387 410.388C553.1 412.903 551.573 415.443 550.192 417.99C542.775 431.673 532.102 444.063 524.187 452.438C495.214 483.071 469.025 507.602 440.694 529.417C412.962 550.769 383.121 569.344 346.719 588.739L264.426 639.781C212.206 670.598 245.54 736.473 295.154 707.507L376.381 658.085C416.227 635.225 448.708 613.354 478.895 588.715C509.514 563.722 537.856 536.027 568.986 501.376C582.553 486.304 601.038 462.218 611.217 437.437C620.859 413.966 623.566 389.913 615.853 368.953C608.882 350.013 590.746 336.99 562.349 337.225C521.688 337.561 450.51 366.253 434.77 372.378C401.577 384.814 369.823 401.206 338.795 419.634C297.598 444.098 257.187 471.111 217.543 498.889C192.212 516.637 167.671 535.375 141.677 551.098C133.635 556.028 117.127 565.304 98.9881 572.228C88.6498 576.173 77.9002 579.848 68.0763 580.916C64.8689 581.265 61.8128 581.681 59.0227 581.307C53.9154 580.619 57.0057 576.138 58.0802 571.235C62.2207 561.184 68.907 550.555 76.6561 540.369C96.0705 514.849 121.057 491.637 132.407 481.347C160.988 456.358 191.771 434.944 223.601 415.383C272.881 385.098 324.547 359.073 374.088 330.102C397.925 316.196 436.369 297.844 460.386 272.044C474.965 256.381 484.731 238.066 487.399 217.326C490.693 191.758 479.893 178.211 462.451 171.646C453.409 168.244 440.732 167.774 426.917 170.038C403.396 173.894 375.43 185.564 369.277 187.699C345.907 195.812 323.084 205.122 300.543 215.106C252.515 236.382 205.813 260.756 157.595 282.327C187.821 255.7 245.283 217.524 278.896 184.46C296.78 166.866 308.699 149.466 312.795 135.396C320.033 110.527 312.612 95.333 300.684 85.6664C294.447 80.6132 286.025 77.0642 276.315 75.8858C262.385 74.1966 245.352 77.1286 235.118 80.5126C216.303 86.7649 178.597 107.766 144.166 121.155C132.821 125.567 116.093 135.652 112.554 130.456C109.015 125.259 168.016 64.923 168.016 64.923C171.487 61.451 177.256 56.2406 181.674 50.898C183.009 49.6796 184.298 48.2662 185.522 46.6445C188.783 42.3228 191.657 33.7494 192.292 30.5982Z" fill="white"/>
</svg>
