<svg width="56" height="56" viewBox="0 0 56 56" fill="none" xmlns="http://www.w3.org/2000/svg">
<circle cx="27.9974" cy="27.9993" r="23.3333" fill="white"/>
<path fill-rule="evenodd" clip-rule="evenodd" d="M42 19.0255C40.9706 19.4828 39.8628 19.7907 38.7009 19.9298C39.8871 19.2186 40.7979 18.0931 41.2263 16.752C40.1176 17.4109 38.8866 17.8878 37.5791 18.1463C36.531 17.0301 35.0369 16.332 33.3859 16.332C30.2137 16.332 27.6416 18.9041 27.6416 22.0763C27.6416 22.5262 27.693 22.9648 27.7909 23.3857C23.0163 23.1468 18.7839 20.8593 15.9505 17.3838C15.4559 18.2322 15.1731 19.2186 15.1731 20.2714C15.1731 22.2639 16.1857 24.0222 17.7284 25.0525C16.7858 25.0227 15.9011 24.7641 15.1255 24.3339V24.4058C15.1255 27.1897 17.1069 29.5108 19.7331 30.0399C19.2515 30.1706 18.7438 30.2415 18.2203 30.2415C17.8497 30.2415 17.4895 30.2051 17.1386 30.1379C17.8693 32.4198 19.9916 34.081 22.5049 34.1277C20.5394 35.6675 18.0625 36.5868 15.371 36.5868C14.9062 36.5868 14.4489 36.5597 14 36.5056C16.5422 38.1351 19.5614 39.087 22.8054 39.087C33.371 39.087 39.1489 30.3339 39.1489 22.7436C39.1489 22.4944 39.1442 22.2462 39.1321 22.0007C40.2557 21.1888 41.2301 20.1771 42 19.0255Z" fill="#121212"/>
</svg>
