<svg width="48" height="48" viewBox="0 0 48 48" fill="none" xmlns="http://www.w3.org/2000/svg">
<circle cx="23.9961" cy="23.999" r="20" fill="#1771DC"/>
<path fill-rule="evenodd" clip-rule="evenodd" d="M18.7787 14.2839C18.7787 15.529 17.8306 16.5366 16.3481 16.5366C14.9233 16.5366 13.9752 15.529 14.0046 14.2839C13.9752 12.9783 14.9232 12 16.3765 12C17.8306 12 18.7502 12.9783 18.7787 14.2839ZM14.1238 32.8191V18.3162H18.631V32.8181H14.1238V32.8191Z" fill="white"/>
<path fill-rule="evenodd" clip-rule="evenodd" d="M22.2442 22.9453C22.2442 21.1364 22.1846 19.5942 22.125 18.3189H26.04L26.2481 20.3057H26.337C26.9303 19.3861 28.4128 17.9934 30.815 17.9934C33.7801 17.9934 36.0044 19.9509 36.0044 24.2198V32.8217H31.4971V24.7846C31.4971 22.9151 30.8452 21.6407 29.2141 21.6407C27.9681 21.6407 27.2273 22.5007 26.9312 23.3304C26.812 23.6275 26.7533 24.0419 26.7533 24.4582V32.8217H22.246V22.9453H22.2442Z" fill="white"/>
</svg>
