<svg width="130" height="48" viewBox="0 0 130 48" fill="none" xmlns="http://www.w3.org/2000/svg">
<path d="M33.7366 13.379L41.8023 13.7758L34.4025 10.7849L38.8209 6.89433L33.3387 9.16846L33.7248 1L30.7457 8.50252L26.7512 4.23881L29.1021 9.72696L20.9773 9.283L28.5176 12.3199L24.1559 16.2164L28.873 14.5208C28.8235 14.7129 28.7707 14.914 28.7148 15.1242L24.6093 34.1851L19.3113 17.8352C19.181 17.2567 18.8573 16.74 18.3937 16.3703C17.93 16.0006 17.3542 15.8001 16.7612 15.8019C16.1682 15.8037 15.5936 16.0077 15.1322 16.3801C14.6708 16.7526 14.3502 17.2713 14.2234 17.8506L10.0117 33.9431C8.91002 29.102 7.54861 25.3578 5.96167 22.7885C4.78092 20.8886 3.86937 20.2829 3.62023 20.1436C3.4392 20.0063 3.2336 19.9049 3.01451 19.8448C2.77961 19.7787 2.53351 19.7622 2.29188 19.7964C1.95371 19.8429 1.63579 19.9848 1.37549 20.2056C1.11519 20.4264 0.923303 20.717 0.822377 21.043C0.72145 21.3691 0.715674 21.7173 0.805725 22.0465C0.895777 22.3758 1.07792 22.6725 1.33075 22.9018L1.36972 22.9408L1.42875 22.9715C1.46299 22.9904 4.79863 25.0425 7.49783 38.7865V38.8054C7.6293 39.3639 7.94541 39.8617 8.39499 40.2182C8.84458 40.5747 9.40132 40.769 9.97509 40.7697C10.5488 40.7703 11.1061 40.5774 11.5565 40.2219C12.0069 39.8665 12.3242 39.3695 12.457 38.8113L16.788 22.1627L22.1274 38.718C22.2561 39.2923 22.5773 39.8052 23.0376 40.1718C23.4979 40.5385 24.0697 40.7367 24.6582 40.7337C25.2466 40.7306 25.8164 40.5265 26.2729 40.1552C26.7294 39.7838 27.0452 39.2676 27.168 38.6921L32.198 15.2446L31.7257 15.1431L32.198 15.2423L32.2961 14.77L36.0851 18.8613L33.7366 13.379Z" fill="#1771DC"/>
<path d="M46.5267 24.8918C44.9717 23.2246 42.7707 22.3438 40.1636 22.3438C35.162 22.3438 31.3906 26.3016 31.3906 31.5536C31.3906 36.9273 35.2198 40.8273 40.4966 40.8273C43.8806 40.8273 46.7983 39.2226 47.9649 36.7324L44.8205 35.1892C43.9043 36.651 42.3846 37.4539 40.5297 37.4539C39.1765 37.4539 37.9792 37.0182 37.0701 36.1928C36.1609 35.3675 35.6012 34.2068 35.4654 32.8442L35.4394 32.5903H48.5954C48.722 32.0655 48.7808 31.5266 48.7702 30.9869C48.7702 28.6065 47.972 26.4433 46.5267 24.8918ZM35.5115 29.7471L35.5693 29.4696C35.8232 28.2511 36.384 27.2439 37.1917 26.5567C37.9993 25.8695 39.0183 25.5176 40.1636 25.5176C42.5806 25.5176 44.3482 27.1164 44.5619 29.4956L44.5844 29.7471H35.5115Z" fill="#1771DC"/>
<path d="M124.808 24.8918C123.253 23.2246 121.052 22.3438 118.444 22.3438C113.443 22.3438 109.672 26.3016 109.672 31.5536C109.672 36.9273 113.501 40.8273 118.778 40.8273C122.162 40.8273 125.078 39.2238 126.247 36.7324L123.102 35.1892C122.186 36.651 120.666 37.4539 118.811 37.4539C117.457 37.4539 116.26 37.0182 115.35 36.194C114.44 35.3698 113.882 34.2068 113.745 32.8442L113.721 32.5903H126.877C127.003 32.0655 127.061 31.5266 127.05 30.9869C127.05 28.6065 126.25 26.4433 124.808 24.8918ZM113.792 29.7471L113.849 29.4696C114.103 28.2511 114.665 27.2439 115.473 26.5567C116.281 25.8695 117.298 25.5176 118.444 25.5176C120.862 25.5176 122.629 27.1164 122.842 29.4956L122.866 29.7471H113.792Z" fill="#1771DC"/>
<path d="M107.399 26.2121H108.824V22.5458H107.95C107.898 22.5458 105.885 22.5848 105.116 22.9862C104.29 23.416 103.685 24.0867 103.257 25.036L103.218 25.1199L102.801 25.0348V22.4277H99.1406V40.7294H103.037V30.8264C103.037 29.4213 103.454 28.2477 104.243 27.433C105.031 26.6182 106.107 26.2121 107.399 26.2121Z" fill="#1771DC"/>
<path d="M95.7137 22.4277H91.8125V40.7342H95.7137V22.4277Z" fill="#1771DC"/>
<path d="M91.8125 17.8842V18.1204C91.8125 18.3823 91.8653 18.6416 91.9676 18.8827C92.07 19.1237 92.2198 19.3418 92.4082 19.5237C92.5967 19.7056 92.8198 19.8477 93.0644 19.9416C93.3089 20.0354 93.5698 20.079 93.8316 20.0698C94.8518 20.0356 95.7149 19.1181 95.7149 18.0625V17.8252C95.7143 17.3083 95.5085 16.8127 95.1427 16.4474C94.777 16.0821 94.2812 15.877 93.7643 15.877H93.697C92.6756 15.91 91.8125 16.8275 91.8125 17.8842Z" fill="#1771DC"/>
<path d="M68.0828 33.8123C68.0828 32.2112 67.6034 30.845 66.6588 29.7528C65.7142 28.6606 64.2513 27.7857 62.3243 27.1682H62.2947L62.2806 27.154L57.7394 25.7288C56.8149 25.4372 56.0981 25.005 55.6081 24.443C55.1283 23.9001 54.8678 23.198 54.8772 22.4735C54.8684 22.0122 54.9668 21.5551 55.1648 21.1383C55.3627 20.7216 55.6547 20.3565 56.0179 20.0718C56.7499 19.4814 57.7618 19.1756 58.9426 19.1756C60.8117 19.1756 62.4754 19.9278 63.6266 21.2951C64.289 22.0791 65.4131 22.6671 66.4333 22.2113C66.6589 22.1148 66.8614 21.9713 67.0272 21.7902C67.1929 21.6092 67.3181 21.3949 67.3944 21.1617C67.4541 20.9747 67.4726 20.777 67.4487 20.5822C67.4249 20.3873 67.3592 20.2 67.2563 20.0329C65.5513 17.2593 62.5203 15.6641 58.9426 15.6641C56.5941 15.6641 54.5738 16.3418 53.1037 17.6241C51.6337 18.9064 50.8698 20.6433 50.8698 22.6695C50.8698 24.2517 51.3421 25.6214 52.2867 26.7525C53.2454 27.9038 54.6789 28.7893 56.548 29.3856L61.3183 30.9206C62.2463 31.2229 62.917 31.6137 63.3692 32.1143C63.8415 32.6421 64.0777 33.2833 64.0777 34.0744C64.086 34.5366 63.9842 34.9942 63.7808 35.4094C63.5773 35.8245 63.278 36.1853 62.9076 36.4619C62.1625 37.0357 61.1258 37.3392 59.912 37.3392C57.7122 37.3392 55.7427 36.3509 54.3683 34.555C53.8311 33.8536 53.0695 33.4592 52.3363 33.4592C52.076 33.4585 51.8185 33.5111 51.5794 33.6139C51.3483 33.7103 51.1399 33.8541 50.9676 34.0359C50.7954 34.2177 50.6631 34.4335 50.5793 34.6695C50.5128 34.8604 50.4877 35.0632 50.5056 35.2646C50.5235 35.4659 50.5841 35.6611 50.6832 35.8373C52.4437 38.9745 55.8065 40.846 59.6782 40.846C62.0881 40.846 64.2489 40.1435 65.7614 38.8671C67.274 37.5907 68.0828 35.8396 68.0828 33.8123Z" fill="#1771DC"/>
<path d="M79.9685 40.8006C85.0647 40.8006 88.908 36.8273 88.908 31.56C88.908 29.0367 87.9977 26.7012 86.3423 24.9844C85.5214 24.1334 84.536 23.4583 83.4459 23.0004C82.3558 22.5424 81.1839 22.3111 80.0016 22.3206C77.6401 22.3206 75.6328 23.1873 74.3505 24.7624L73.9963 25.3752V22.5414H70.3359V47.1105H74.2324V38.2868L74.6091 38.7437C75.8678 40.0673 77.7747 40.8006 79.9685 40.8006ZM74.2017 31.56C74.2017 28.2539 76.4168 25.8605 79.4679 25.8605C80.1875 25.8515 80.9011 25.9918 81.5637 26.2727C82.2262 26.5536 82.8233 26.9689 83.3172 27.4923C84.296 28.5384 84.8344 29.9825 84.8344 31.56C84.8344 34.8661 82.578 37.2595 79.4679 37.2595C76.418 37.2595 74.2029 34.8626 74.2029 31.56H74.2017Z" fill="#1771DC"/>
</svg>
