<svg width="80" height="80" viewBox="0 0 80 80" fill="none" xmlns="http://www.w3.org/2000/svg">
<g clip-path="url(#clip0_3535_28252)">
<path d="M7.50028 33.6667C9.11997 33.9949 10.7555 34.2397 12.4003 34.4C12.6379 34.4606 12.8896 34.4285 13.1045 34.3104C13.3194 34.1923 13.4814 33.997 13.5576 33.7639C13.6339 33.5309 13.6188 33.2776 13.5153 33.0553C13.4118 32.833 13.2277 32.6583 13.0003 32.5667C11.7003 31.8667 10.5336 31.1 9.23361 30.4667C8.66968 30.21 8.09086 29.9874 7.50028 29.8L5.70028 29.3667C4.25697 29.1125 2.79805 28.9565 1.33361 28.9C1.19112 28.8606 1.04199 28.8512 0.895679 28.8724C0.749368 28.8937 0.609073 28.9451 0.483699 29.0235C0.358324 29.1019 0.250609 29.2054 0.167389 29.3276C0.0841685 29.4498 0.0272612 29.588 0.000278565 29.7334C-0.0593915 30.0161 -0.0054311 30.3109 0.150499 30.5542C0.30643 30.7974 0.551809 30.9695 0.833612 31.0334C2.20028 31.5334 3.43361 32.2 4.76694 32.7334C6.10028 33.2667 6.66694 33.3334 7.50028 33.6667Z" fill="#FFCC7B"/>
<path d="M15.3339 8.83334C15.8339 9.53334 16.3006 10.2667 16.8339 10.9667C17.3672 11.6667 18.9006 13.2 19.9006 14.3C19.9578 14.4208 20.0396 14.5284 20.1405 14.616C20.2415 14.7036 20.3596 14.7693 20.4872 14.809C20.6149 14.8486 20.7494 14.8614 20.8822 14.8464C21.0151 14.8314 21.1434 14.7891 21.259 14.722C21.3746 14.6549 21.4751 14.5646 21.5541 14.4567C21.633 14.3489 21.6887 14.2258 21.7177 14.0953C21.7467 13.9648 21.7483 13.8297 21.7224 13.6985C21.6965 13.5674 21.6436 13.443 21.5672 13.3333C21.1398 12.008 20.6162 10.7157 20.0006 9.46668C19.7055 8.93893 19.3828 8.42711 19.0339 7.93335C18.6887 7.49292 18.3216 7.07017 17.9339 6.66668C16.9234 5.66851 15.8055 4.78535 14.6006 4.03335C14.3742 3.8545 14.0866 3.77175 13.7998 3.80292C13.513 3.8341 13.2499 3.9767 13.0672 4.20001C12.9644 4.29948 12.8826 4.41861 12.8268 4.55032C12.771 4.68202 12.7422 4.82362 12.7422 4.96668C12.7422 5.10974 12.771 5.25133 12.8268 5.38304C12.8826 5.51475 12.9644 5.63388 13.0672 5.73335C13.8851 6.71967 14.642 7.75492 15.3339 8.83334V8.83334Z" fill="#FFCC7B"/>
<path d="M37.1334 7.3667C37.4298 8.51242 37.8315 9.62828 38.3334 10.7C38.3573 10.8248 38.4057 10.9437 38.4757 11.0498C38.5456 11.1559 38.6358 11.2472 38.7411 11.3184C38.8463 11.3896 38.9646 11.4393 39.0891 11.4648C39.2136 11.4902 39.3419 11.4909 39.4667 11.4667C39.7119 11.4181 39.9288 11.2763 40.0718 11.0712C40.2147 10.8661 40.2726 10.6136 40.2334 10.3667C40.2334 9.23336 40.5667 8.20003 40.6 7.03336C40.6458 6.10309 40.556 5.1711 40.3334 4.2667C40.0667 3.13336 39.7334 2.10003 39.4 0.933363C39.3587 0.646781 39.206 0.388063 38.9751 0.213336C38.7442 0.0386082 38.4537 -0.0380362 38.1667 2.98865e-05C38.0262 0.0164809 37.8904 0.0607219 37.7671 0.130177C37.6438 0.199632 37.5356 0.292914 37.4488 0.404591C37.3619 0.516268 37.2981 0.644109 37.2612 0.78067C37.2242 0.917231 37.2147 1.05978 37.2334 1.20003C37.2334 2.33336 36.9667 3.3667 36.9 4.53336C36.8667 5.01056 36.8667 5.4895 36.9 5.9667C36.9262 6.44051 37.0045 6.91 37.1334 7.3667V7.3667Z" fill="#FFCC7B"/>
<path d="M55.6667 23.3334C57.2334 23.1 58.7667 23 60.3 22.6667C60.9466 22.5553 61.5824 22.388 62.2 22.1667L64.0334 21.5C65.4667 20.9334 66.8334 20.2667 68.2667 19.7C68.4046 19.6672 68.5347 19.6075 68.6495 19.5244C68.7643 19.4413 68.8617 19.3364 68.9359 19.2157C69.0102 19.095 69.06 18.9608 69.0824 18.8209C69.1049 18.6809 69.0995 18.5379 69.0667 18.4C69.0339 18.2621 68.9742 18.1321 68.8911 18.0172C68.808 17.9024 68.7031 17.8051 68.5824 17.7308C68.4617 17.6565 68.3275 17.6067 68.1876 17.5843C68.0476 17.5618 67.9046 17.5672 67.7667 17.6C66.1904 17.7158 64.6215 17.9161 63.0667 18.2C62.4334 18.2 61.7667 18.4667 61.1334 18.6667C60.4992 18.8539 59.876 19.0764 59.2667 19.3334C57.8 19.9667 56.5 20.7667 55.1 21.5C54.8848 21.5967 54.7123 21.7687 54.6151 21.9837C54.5179 22.1988 54.5027 22.4419 54.5724 22.6674C54.6421 22.8928 54.7918 23.085 54.9934 23.2076C55.195 23.3303 55.4344 23.375 55.6667 23.3334V23.3334Z" fill="#FFCC7B"/>
<path d="M79.3993 40.6334C77.363 39.383 75.0957 38.5554 72.7327 38.2C71.3769 37.9885 70.0037 37.9103 68.6327 37.9667C66.466 37.9667 64.4327 38.4667 62.666 38.6667C62.5391 38.6622 62.4125 38.6829 62.2935 38.7274C62.1745 38.7719 62.0654 38.8394 61.9726 38.9261C61.8797 39.0128 61.8048 39.1169 61.7522 39.2325C61.6996 39.3482 61.6703 39.4731 61.666 39.6C61.6655 39.8541 61.7616 40.0988 61.935 40.2846C62.1083 40.4703 62.3459 40.5831 62.5994 40.6C64.5327 40.9 66.766 41.3 69.266 41.5667L72.5994 41.7667C73.666 41.7667 74.6993 41.7667 75.7327 41.9334C76.7424 42.0309 77.7378 42.2434 78.6994 42.5667C78.8263 42.6302 78.9645 42.668 79.1061 42.6781C79.2476 42.6881 79.3898 42.6702 79.5245 42.6253C79.6591 42.5805 79.7836 42.5095 79.8908 42.4165C79.998 42.3235 80.0859 42.2103 80.1493 42.0834C80.2128 41.9564 80.2507 41.8182 80.2607 41.6766C80.2708 41.5351 80.2529 41.3929 80.208 41.2583C80.1631 41.1236 80.0921 40.9991 79.9992 40.8919C79.9062 40.7847 79.793 40.6968 79.666 40.6334H79.3993Z" fill="#FFCC7B"/>
<path d="M59.3007 58.2667C59.0018 57.631 58.6564 57.0183 58.2674 56.4334C57.8798 55.8551 57.433 55.3189 56.9341 54.8334C55.731 53.7383 54.3716 52.8283 52.9007 52.1334C52.8014 52.0439 52.6846 51.976 52.5577 51.934C52.4308 51.892 52.2965 51.8767 52.1634 51.8892C52.0303 51.9017 51.9013 51.9417 51.7844 52.0066C51.6676 52.0715 51.5654 52.1599 51.4845 52.2663C51.4035 52.3727 51.3455 52.4947 51.3141 52.6247C51.2827 52.7546 51.2786 52.8896 51.3021 53.0212C51.3256 53.1529 51.3761 53.2782 51.4504 53.3893C51.5248 53.5004 51.6213 53.5948 51.7341 53.6667C52.2955 54.2667 52.8187 54.9013 53.3007 55.5667C53.7007 56.1334 53.9674 56.6667 54.3341 57.2C54.7007 57.7334 55.0341 58.2334 55.4007 58.7334C56.5007 60.2667 57.6674 61.7334 58.7341 63.6C58.8719 63.8275 59.0874 63.9972 59.3408 64.078C59.5941 64.1587 59.8682 64.145 60.1121 64.0392C60.3561 63.9335 60.5536 63.743 60.6679 63.5029C60.7822 63.2628 60.8057 62.9894 60.7341 62.7334C60.3564 61.2142 59.8776 59.722 59.3007 58.2667V58.2667Z" fill="#FFCC7B"/>
<path d="M57.5669 39.2C57.5684 38.9845 57.5176 38.7719 57.4189 38.5803C57.3202 38.3887 57.1766 38.2239 57.0003 38.1L47.3669 31.0334C47.3669 30 47.8336 27.9334 48.0336 25.9334C48.1972 24.6064 48.2751 23.2703 48.2669 21.9334C48.2316 20.9337 48.0976 19.94 47.8669 18.9667C47.7954 18.7062 47.665 18.4655 47.4859 18.2633C47.3067 18.061 47.0836 17.9025 46.8336 17.8V17.8C46.4282 17.7037 46.0057 17.7037 45.6003 17.8C44.7595 18.1263 43.9551 18.5397 43.2003 19.0334L34.7336 24.0667L24.9669 19.5667C24.7707 19.4671 24.5537 19.4153 24.3336 19.4153C24.1135 19.4153 23.8966 19.4671 23.7003 19.5667C23.3162 19.8753 23.0276 20.2866 22.8683 20.7528C22.709 21.219 22.6854 21.7209 22.8003 22.2C23.4552 25.5982 24.369 28.9412 25.5336 32.2L23.9336 33.7334C22.232 35.0855 20.6177 36.544 19.1003 38.1C18.3527 38.9169 17.7648 39.8667 17.3669 40.9C17.1342 41.5108 17.131 42.1853 17.3578 42.7983C17.5846 43.4112 18.0261 43.9212 18.6003 44.2334C19.8881 44.9746 21.3207 45.4294 22.8003 45.5667H25.1336C22.9003 47.6334 20.6669 49.7334 18.4669 51.9C17.1669 53.2667 15.9003 54.6667 14.667 56.0667C13.4336 57.4667 12.2336 58.9667 11.1003 60.4667C8.42559 63.9733 5.94413 67.6232 3.66695 71.4C3.58458 71.5155 3.52608 71.6463 3.49487 71.7847C3.46367 71.9231 3.46038 72.0664 3.48522 72.206C3.51005 72.3457 3.5625 72.479 3.63949 72.5982C3.71649 72.7174 3.81648 72.82 3.93362 72.9C4.05178 72.9833 4.1852 73.0424 4.32623 73.074C4.46726 73.1057 4.61315 73.1092 4.75555 73.0845C4.89795 73.0597 5.03407 73.0071 5.15614 72.9297C5.27821 72.8523 5.38382 72.7516 5.46695 72.6334C6.93362 70.6334 8.50028 68.7334 10.1003 66.8334C11.7003 64.9334 13.3336 63.3334 15.0669 61.3C16.8003 59.2667 18.4003 57.6 19.9336 55.7334C22.8336 52.4 25.6003 48.8334 28.4336 45.4C29.6669 45.4 30.8003 45.4 31.7669 45.1334L32.6336 47.0667C30.2669 50.4 27.7336 53.7334 25.3003 57.0667C23.3336 59.4334 21.5669 61.9667 20.0003 64.5667C17.1947 68.9771 14.7426 73.6027 12.6669 78.4C12.5779 78.5441 12.5244 78.7074 12.511 78.8762C12.4975 79.0451 12.5245 79.2147 12.5897 79.3711C12.6548 79.5275 12.7563 79.6661 12.8857 79.7755C13.015 79.8848 13.1686 79.9618 13.3336 80C13.5946 80.127 13.8952 80.1458 14.1699 80.0521C14.4447 79.9585 14.6712 79.76 14.8003 79.5C17.4286 74.8841 20.3339 70.4315 23.5003 66.1667C24.7336 64.4 25.9669 62.6334 27.1336 60.8667L29.4669 57.2C30.9669 54.7334 32.4003 52.2 33.8003 49.6667C34.4003 50.9334 35.0669 52.1667 35.6669 53.2C36.5467 54.4305 37.6842 55.4543 39.0003 56.2C39.5394 56.5016 40.1665 56.6066 40.7744 56.4972C41.3824 56.3877 41.9335 56.0706 42.3336 55.6C43.048 54.7325 43.591 53.737 43.9336 52.6667C44.5116 50.5839 44.9679 48.4692 45.3003 46.3334L45.8003 44.1667C49.1973 43.5219 52.5403 42.6193 55.8003 41.4667C57.1336 40.6334 57.6003 39.6667 57.5669 39.2ZM44.0669 40.9667C43.7563 41.0167 43.4672 41.1572 43.236 41.3707C43.0048 41.5841 42.8416 41.861 42.7669 42.1667L41.9003 45.3C41.5336 46.8334 41.2669 48.6334 40.7336 50.5C40.5296 51.2479 40.227 51.9653 39.8336 52.6334C39.3867 52.1608 38.9849 51.6474 38.6336 51.1C38.0669 50.1334 37.4336 48.9334 36.8669 47.7667C35.5669 45.1334 34.4669 42.5 34.4669 42.5C34.3169 42.13 34.0501 41.819 33.7072 41.6145C33.3642 41.4099 32.9639 41.3229 32.5669 41.3667C32.5669 41.3667 29.7003 41.7 26.7003 41.9C24.8544 41.84 23.0157 41.6394 21.2003 41.3C21.5147 40.8251 21.8839 40.3888 22.3003 40C23.5669 38.6667 25.1003 37.4667 26.2003 36.3667L28.5336 34.0334C28.7521 33.8155 28.903 33.5392 28.9681 33.2375C29.0331 32.9359 29.0096 32.6219 28.9003 32.3334C28.9003 32.3334 26.6669 26.4667 25.9336 23.1L34.3003 26.6667C34.4827 26.772 34.6896 26.8275 34.9003 26.8275C35.1109 26.8275 35.3179 26.772 35.5003 26.6667C35.5003 26.6667 45.9336 20.5667 46.3003 20C46.3003 20.7 46.1003 24.1667 45.9003 25.6C45.5003 28.3667 44.9669 31.2667 44.9669 31.2667C44.9243 31.4773 44.9425 31.6956 45.0192 31.8962C45.0959 32.0969 45.2281 32.2716 45.4003 32.4L53.5669 38.8667C50.2669 40 44.0669 40.9667 44.0669 40.9667Z" fill="#FFCC7B"/>
</g>
<defs>
<clipPath id="clip0_3535_28252">
<rect width="80" height="80" fill="white"/>
</clipPath>
</defs>
</svg>
