<svg width="72" height="72" viewBox="0 0 72 72" fill="none" xmlns="http://www.w3.org/2000/svg">
<path fill-rule="evenodd" clip-rule="evenodd" d="M47.3264 1.27784C46.8304 1.62915 46.3714 2.26309 45.7533 3.45102C45.0866 4.7323 44.8983 5.46744 44.9027 6.7733C44.9088 8.60474 45.1977 9.54437 45.8048 9.70658C46.5252 9.89912 47.4103 8.79268 48.4178 6.44045C48.5671 6.09201 48.6422 5.66954 48.8688 3.90582C49.0353 2.60972 49.0486 1.80667 48.9082 1.53226C48.6008 0.9316 47.9609 0.828685 47.3264 1.27784ZM32.4897 1.65163C32.2202 1.76774 31.9769 2.12316 31.9769 2.40054C31.9769 2.52249 32.0683 2.8034 32.18 3.02492C32.3698 3.401 33.372 4.89968 33.5047 5.00576C33.5376 5.03206 34.0234 5.63817 34.5843 6.35265C35.5971 7.64292 37.955 10.0391 38.7525 10.5884C39.0775 10.8121 39.2118 10.851 39.4842 10.7999C40.523 10.6052 40.4511 9.17345 39.27 6.5361C38.8135 5.5166 37.9856 4.4665 37.0742 3.75087C36.224 3.08317 34.8053 2.16592 34.1827 1.88137C33.6076 1.61853 32.8156 1.51103 32.4897 1.65163ZM60.2144 7.2106C60.0828 7.25479 59.5444 7.40552 59.0179 7.54555C56.869 8.11713 55.3936 8.87867 54.2474 10.008C52.7481 11.4848 51.6411 13.2782 51.8407 13.9066C51.9256 14.174 52.44 14.6572 52.7125 14.7254C52.9695 14.7899 53.1325 14.712 54.5025 13.869C55.0725 13.5183 55.5505 13.2313 55.5647 13.2313C55.641 13.2313 58.0715 11.852 58.7008 11.4517C59.1054 11.1943 59.9169 10.6824 60.5041 10.3141C61.678 9.57794 62.6435 8.83467 62.7962 8.54974C63.0161 8.13894 62.7764 7.40887 62.359 7.21892C62.0871 7.09506 60.5761 7.08922 60.2144 7.2106ZM28.7224 9.88592C26.6635 10.3348 24.54 10.9124 23.7928 11.2271C23.6876 11.2714 23.2789 11.4204 22.8848 11.5582C21.6865 11.9773 18.6866 13.3704 15.6088 14.9371C14.0031 15.7544 11.6986 16.9189 10.4877 17.5248L8.28616 18.6266L6.95833 19.97C4.1117 22.8502 2.83384 24.7887 3.01724 25.9488C3.04662 26.1348 3.11372 26.8757 3.16637 27.595C3.21902 28.3145 3.34785 29.3475 3.45257 29.8906C3.55739 30.4337 3.68919 31.1364 3.74548 31.452C3.80186 31.7676 3.88475 32.198 3.92964 32.4085C3.97463 32.6189 4.06097 33.0493 4.12147 33.3649C4.33262 34.4659 4.79361 36.0491 5.40852 37.7858C5.70602 38.6257 9.62318 48.6094 9.86602 49.1466C9.96117 49.357 10.1985 49.9165 10.3933 50.39C10.7436 51.2406 10.8425 51.4703 11.4235 52.7811C11.8005 53.6318 15.4209 60.7653 16.1806 62.1545C16.6427 62.9995 17.938 65.1551 18.5657 66.1238C19.8503 68.1064 21.6061 69.6131 23.6493 70.4864C24.5755 70.8821 25.165 70.9411 25.4671 70.6678C25.6281 70.5222 25.7005 70.5116 25.9036 70.604C26.3736 70.818 27.0431 70.6515 27.2849 70.2605C27.3827 70.1025 27.395 70.1032 27.5051 70.2733C27.9226 70.9187 28.0492 71.0019 28.6113 71C28.9094 70.999 29.5408 70.8957 30.0147 70.7705C30.8737 70.5434 33.6715 69.6408 34.0349 69.4735C34.1402 69.4251 34.4417 69.3159 34.705 69.2309C34.9682 69.1459 35.722 68.8687 36.3801 68.6149C39.0585 67.5819 39.9403 67.273 45.3778 65.4629C47.0888 64.8933 49.0775 64.2064 49.7973 63.9365C50.517 63.6666 51.1306 63.4457 51.1609 63.4457C51.1911 63.4457 51.5422 63.2951 51.9412 63.111C52.3401 62.9268 52.6836 62.7762 52.7045 62.7762C52.7254 62.7762 52.97 62.6734 53.2479 62.5478C53.5259 62.4222 53.9687 62.2248 54.2319 62.1091C55.4354 61.5803 57.8763 60.3061 59.9751 59.111C60.7122 58.6913 61.4034 58.3006 61.511 58.2427C61.6188 58.1847 62.3726 57.6853 63.1861 57.133C65.3106 55.6907 66.4758 54.4623 67.3311 52.763C67.859 51.7141 67.8983 51.4178 67.6784 50.1416C67.3937 48.4895 67.4805 45.9221 67.8679 44.5389C68.102 43.703 68.1401 43.8412 66.9895 41.3514C66.7549 40.8439 65.5156 38.0312 65.1984 37.2864C64.8118 36.3786 64.5041 35.8143 64.286 35.6126C64.0596 35.4033 63.9416 35.3737 63.3413 35.3752C62.964 35.3763 62.4506 35.43 62.2006 35.4948C61.1221 35.7743 60.9042 35.8151 60.397 35.8329C59.7648 35.8552 59.478 35.7232 59.1854 35.2754C58.6811 34.5036 59.1078 33.6509 60.8847 31.8798C61.5459 31.2208 62.1629 30.5214 62.2559 30.3255C62.6332 29.5309 62.5256 28.4726 61.9843 27.6553C61.8531 27.4574 61.7459 27.2763 61.7459 27.2527C61.7459 27.1347 59.9282 23.5065 59.5339 22.8376C59.0278 21.9788 58.5708 21.5917 57.8459 21.4078C57.2041 21.245 56.866 21.3493 54.8817 22.3231C53.923 22.7936 53.1163 23.1786 53.0889 23.1786C53.0615 23.1786 52.7059 22.875 52.2985 22.504C51.4859 21.7637 50.5505 21.2447 49.636 21.0265C48.953 20.8636 47.5965 20.8431 46.89 20.9849C44.8452 21.3955 43.1334 22.8682 42.3869 24.8589C42.0786 25.6812 42.0791 27.4684 42.388 28.2923C42.5056 28.6061 42.6019 28.9095 42.6019 28.9665C42.6019 29.0236 42.4418 29.1281 42.2462 29.1988C41.247 29.5598 39.7096 30.394 39.4376 30.7227C39.0302 31.2148 38.8866 31.7351 39.0686 32.0592C39.3899 32.6309 39.9851 32.665 41.1322 32.1773C41.9693 31.8213 42.433 31.6641 43.4155 31.4036C44.4476 31.1299 45.2533 30.7575 45.4643 30.4567C45.56 30.3202 45.69 30.0494 45.7532 29.8549C45.8557 29.539 45.841 29.4366 45.6153 28.8984C45.2352 27.9917 44.9964 27.1872 44.9961 26.8131C44.9956 25.9219 45.5135 25.0321 46.2586 24.6439C46.7084 24.4095 46.8685 24.3797 47.675 24.3795C49.0146 24.3792 49.4477 24.6509 50.2593 26.0001C50.9556 27.1578 51.4905 27.5783 52.2666 27.5783C52.651 27.5783 52.9656 27.4486 53.8263 26.9354C54.1297 26.7545 54.6035 26.5266 54.8792 26.4289C55.1549 26.3313 55.7006 26.1187 56.0919 25.9566C56.4831 25.7945 56.8329 25.6949 56.8692 25.7354C56.973 25.851 58.4563 28.7505 58.5289 28.9794C58.5808 29.1437 58.4886 29.2903 58.0701 29.7085C56.9218 30.8558 55.9645 32.8024 55.8377 34.2478C55.6648 36.2168 57.568 38.5844 59.4965 38.7995C60.0818 38.8647 61.1227 38.7512 61.8789 38.5396C62.1888 38.4528 62.5119 38.4041 62.5968 38.4313C62.8006 38.4965 63.2058 39.1214 64.0253 40.634C64.9058 42.2594 65.408 43.3384 65.3371 43.4529C65.163 43.7344 62.3659 44.8191 60.6451 45.2723C60.2303 45.3817 58.6129 45.9766 58.1086 46.2054C57.8717 46.3129 57.3978 46.5177 57.0556 46.6606C56.3356 46.9613 55.8665 47.2154 54.8599 47.8494C52.7894 49.1538 52.0744 49.5634 50.4632 50.3687C49.042 51.0788 48.661 51.3117 48.477 51.5822C48.0862 52.157 48.2288 52.884 48.8142 53.3004C49.3461 53.679 49.51 53.6563 51.8292 52.8831C53.0293 52.4831 54.1901 52.0753 54.4087 51.9768C54.6273 51.8783 55.56 51.4882 56.4813 51.1098C59.9509 49.685 61.0487 49.1827 62.6982 48.266C63.1657 48.0061 64.1168 47.3474 64.8474 46.7773C65.1054 46.5761 65.345 46.4457 65.3798 46.4877C65.4145 46.5298 65.4126 47.0161 65.3755 47.5684C65.3382 48.1208 65.3033 49.0611 65.2977 49.6579C65.2859 50.931 65.1205 51.6048 64.6774 52.1852C64.3481 52.6166 63.1207 53.6862 62.7129 53.897C62.5774 53.9672 61.9256 54.3284 61.2646 54.6999C60.6034 55.0713 59.849 55.4761 59.5881 55.5994C59.3272 55.7227 58.166 56.2848 57.0078 56.8485C55.8496 57.4123 54.6866 57.97 54.4233 58.0879C54.1601 58.2057 53.7078 58.4096 53.4183 58.5409C53.1287 58.6721 52.6799 58.8632 52.421 58.9655C52.1619 59.0679 51.771 59.2331 51.5522 59.3327C50.7953 59.6772 49.2143 60.2653 49.1684 60.2194C49.143 60.194 49.1459 59.9735 49.1747 59.7292C49.2408 59.1684 49.0586 57.6428 48.8722 57.1971C48.6919 56.7661 48.3946 56.5592 47.9552 56.5592C47.1616 56.5592 46.5467 56.9667 46.2775 57.671C46.0259 58.3292 46.1198 59.8044 46.4572 60.4934C46.6005 60.7862 46.7172 61.086 46.7164 61.1598C46.7155 61.2416 46.2601 61.4724 45.5438 61.7541C44.0901 62.3257 44.0438 62.3443 43.7505 62.4733C43.6189 62.5312 42.6282 62.9265 41.549 63.3518C40.4697 63.7771 39.4575 64.1842 39.2995 64.2565C39.1416 64.3288 38.4955 64.6231 37.8637 64.9106C37.232 65.1982 36.0905 65.7347 35.3271 66.1029C34.5638 66.4711 33.6161 66.9113 33.2213 67.081C32.8264 67.2508 32.3311 67.4665 32.1205 67.5602C31.6606 67.7652 30.3376 68.2654 29.8711 68.4109C29.6868 68.4684 29.1961 68.6218 28.7806 68.7518C28.3651 68.8819 27.9494 69.0567 27.8568 69.1404C27.6013 69.3715 27.583 69.2122 27.7628 68.3237C27.8534 67.8765 27.9821 67.0942 28.0489 66.5852L28.1703 65.6598L27.7671 65.0853C27.1084 64.1471 26.3305 63.9626 25.5828 64.5673C25.1385 64.9266 25.0038 65.5398 24.9955 67.2412L24.9893 68.5021L24.3702 68.1853C23.3776 67.6773 22.455 66.87 21.6319 65.7891C21.2226 65.2516 21.0475 64.9642 20.3213 63.637C19.9189 62.9015 18.6718 60.4193 18.6718 60.3537C18.6718 60.3239 18.5162 59.9637 18.326 59.5532C17.9007 58.6358 17.8646 58.5518 17.6165 57.906C17.5071 57.6209 17.3384 57.212 17.2419 56.9973C16.7967 56.0075 16.6642 55.7047 16.4224 55.1245C16.2799 54.7825 16.0862 54.3306 15.9921 54.1202C15.8979 53.9098 15.6614 53.3502 15.4665 52.8768C15.2716 52.4033 15.0286 51.8321 14.9265 51.6076C14.6046 50.8997 11.7707 43.9216 11.4799 43.1209C11.327 42.7 11.1641 42.2696 11.1179 42.1644C10.8382 41.5284 10.722 41.2528 10.5533 40.8253C10.4495 40.5623 10.257 40.1104 10.1255 39.8211C9.89282 39.3091 9.10179 37.4803 8.86354 36.9038C8.79836 36.746 8.65334 36.4017 8.54135 36.1387C8.01326 34.8983 7.21486 32.7266 6.99432 31.9302C6.67528 30.7786 6.56071 30.3412 6.26799 29.1565C6.08603 28.42 5.89679 27.6668 5.84759 27.4827C5.54674 26.3575 5.6729 25.1231 6.16749 24.3524C6.48997 23.8499 8.26299 21.716 8.39212 21.6751C8.4552 21.655 8.52536 21.8458 8.56557 22.1469C8.6028 22.4251 8.67364 22.9431 8.72293 23.2981C8.77223 23.6532 8.85282 24.2343 8.90202 24.5894C9.05317 25.6813 9.75853 28.9935 10.0605 30.0293C10.2179 30.5692 10.521 31.4974 10.7343 32.0922C11.1562 33.2693 12.0675 36.0117 12.4921 37.3821C12.8398 38.5044 13.0634 38.8932 13.5033 39.1402C13.9328 39.3815 14.1846 39.3925 14.7643 39.195C15.2966 39.0138 15.6539 38.6506 15.7881 38.1546C15.8763 37.8287 15.8536 37.6777 15.6157 37.0068C15.3644 36.298 14.282 33.5268 14.0811 33.078C13.9915 32.8778 13.5802 31.7951 13.1001 30.4955C12.6177 29.1897 11.7126 26.4135 11.5564 25.761C11.4747 25.4191 11.2354 24.4292 11.0247 23.5612C10.814 22.6932 10.5516 21.5566 10.4414 21.0355C10.3313 20.5143 10.2188 20.0518 10.1916 20.0077C10.1359 19.9177 10.1009 19.9334 11.8757 19.2526C12.5864 18.98 13.3402 18.6804 13.5508 18.587C13.9591 18.4058 15.7527 17.6857 16.2309 17.5109C16.3889 17.4531 16.7335 17.3125 16.9967 17.1983C17.2599 17.0842 17.7122 16.9015 18.0018 16.7926C18.2913 16.6835 18.9805 16.4218 19.5333 16.2111C21.0185 15.6449 22.9701 15.0085 24.2714 14.6659C24.9032 14.4996 25.7647 14.2113 26.1859 14.0252C26.607 13.8392 27.3745 13.5473 27.8913 13.3766L28.8309 13.0663L28.9599 13.2684C29.0308 13.3795 29.3148 13.9439 29.5912 14.5226C30.2107 15.8203 30.269 15.969 30.5025 16.8477C30.6598 17.44 30.6352 17.5084 29.9765 18.3114C29.7343 18.6068 29.4169 18.9941 29.2712 19.1722C28.8574 19.6785 28.2363 20.8465 28.091 21.392C27.8148 22.4283 27.9689 23.2934 28.699 24.8046C29.1626 25.7641 30.1274 26.7225 31.1214 27.2106C32.0887 27.6857 32.4598 27.7696 33.5943 27.7696C34.4366 27.7696 34.5747 27.7921 34.6217 27.937C34.9158 28.843 35.6089 30.5037 35.7724 30.6941C36.1808 31.1695 36.818 31.1737 37.3224 30.7043C37.8936 30.173 37.9432 29.6503 37.5363 28.4505C37.3825 27.997 37.163 27.3033 37.0485 26.9088C36.7105 25.7449 36.2923 24.8232 36.0113 24.6234C35.558 24.3008 34.986 24.2011 34.3145 24.3278C33.9853 24.3898 33.6253 24.525 33.5146 24.6281C33.3326 24.7975 33.2787 24.8035 32.9561 24.6906C32.4274 24.5053 31.8666 23.8925 31.5546 23.1591L31.2826 22.5195L31.5445 22.073C31.6884 21.8275 32.1799 21.2333 32.6367 20.7527C33.9397 19.3816 34.2742 18.6926 34.2742 17.3801C34.2742 16.6526 33.9356 15.1116 33.7099 14.8125C33.669 14.7582 33.5363 14.4556 33.4151 14.14C33.1515 13.4534 32.1711 11.4705 31.8223 10.9183C31.43 10.2974 30.9386 9.90266 30.4189 9.79133C29.829 9.66488 29.7044 9.67187 28.7224 9.88592ZM36.662 31.436C35.9291 31.7373 35.1231 32.2396 33.918 33.1462C32.8397 33.9574 31.5673 34.6815 31.0419 34.783C30.8698 34.8162 30.403 34.979 30.0045 35.1448C29.4397 35.3797 29.2186 35.5309 29.0012 35.8307C28.6568 36.3058 28.6406 36.737 28.926 37.8372C29.1775 38.8066 29.1337 39.6668 28.7838 40.634C28.39 41.7224 27.499 42.3904 26.7123 42.1872C26.2836 42.0764 25.4847 41.4756 24.8579 40.7926C23.5167 39.331 23.2381 39.0731 22.7332 38.826C21.8293 38.3838 21.0516 38.4602 18.8154 39.211C17.9874 39.4891 17.5873 39.5701 16.9424 39.5905C15.942 39.622 15.2422 39.9061 14.5336 40.5684C13.8456 41.2116 13.6374 41.7237 13.8746 42.1896C13.9211 42.281 14.0029 42.4633 14.0563 42.5948C14.1097 42.7263 14.2187 42.9846 14.2986 43.1687C14.3785 43.3528 14.6028 43.8908 14.7973 44.3643C14.9917 44.8377 15.2279 45.3972 15.3221 45.6077C15.4162 45.8181 15.6098 46.27 15.7523 46.6119C15.8949 46.9539 16.0887 47.4058 16.1831 47.6162C16.2775 47.8267 16.4713 48.2786 16.6138 48.6205C16.7564 48.9625 16.9506 49.4144 17.0455 49.6248C17.1404 49.8352 17.3772 50.3948 17.5716 50.8682C17.9274 51.7345 18.0724 52.0771 18.3368 52.676C18.4158 52.855 18.4804 53.0238 18.4804 53.0512C18.4804 53.1126 19.7421 56.1038 20.1012 56.8939C20.2447 57.2096 20.5071 57.7906 20.6842 58.1852C20.8614 58.5797 21.0842 59.0167 21.1792 59.1564C21.2743 59.296 21.352 59.4351 21.352 59.4654C21.352 59.4957 21.5027 59.756 21.687 60.0439C21.8713 60.3317 22.022 60.6064 22.022 60.6542C22.022 60.8053 23.5972 62.2595 24.0395 62.5168C24.5365 62.8058 25.3046 63.1177 26.0423 63.3298C26.6887 63.5158 29.5405 63.5527 30.0625 63.3819C30.2468 63.3216 31.1729 63.028 32.1205 62.7295C34.5811 61.9543 36.8831 61.0454 38.4859 60.216C40.1243 59.3682 40.5358 59.144 41.059 58.814C41.2737 58.6786 41.4674 58.5678 41.4894 58.5678C41.5114 58.5678 41.8042 58.4009 42.1402 58.1969C42.4761 57.993 43.5577 57.4142 44.5439 56.9106C47.2683 55.5194 47.9622 54.8994 47.9622 53.8567C47.9622 53.1335 47.7667 52.4266 47.2982 51.4546C47.0843 51.0109 46.9093 50.6 46.9093 50.5416C46.9093 50.4831 46.8686 50.3604 46.8189 50.2691C46.6858 50.0245 45.5692 47.0954 45.5692 46.991C45.5692 46.9418 45.8168 46.7753 46.1196 46.6208C47.7252 45.8018 49.191 43.293 49.2032 41.3428C49.2074 40.6691 48.9157 39.5236 48.5947 38.9542C47.8506 37.634 45.9098 36.5661 43.9898 36.4206C43.4101 36.3766 42.984 36.4109 42.2364 36.5613C41.561 36.6973 41.1948 36.7313 41.0778 36.6687C40.8748 36.5602 39.0901 33.4329 38.7423 32.5764C38.5049 31.9915 38.1636 31.4258 37.964 31.286C37.7722 31.1518 37.1905 31.2187 36.662 31.436ZM37.7452 36.2605C38.2388 37.2456 38.7017 38.2022 38.7737 38.3864C39.0315 39.0445 39.3251 39.4069 39.7693 39.6156C40.3028 39.8661 40.8611 39.8766 41.884 39.6554C43.317 39.3455 44.4967 39.4889 45.3939 40.0822C45.8989 40.4161 46.088 40.7955 46.0742 41.447C46.0522 42.4829 45.5513 43.1457 43.9721 44.2284C43.4028 44.6188 42.7373 45.1356 42.4933 45.3768C42.1194 45.7466 42.0393 45.892 41.9827 46.3038C41.9456 46.5724 41.9442 46.8914 41.9793 47.0129C42.3637 48.341 43.6045 52.1027 43.7552 52.3967C44.0002 52.8749 44.0724 52.8141 42.1233 53.7671C41.3073 54.1661 39.9504 54.8845 39.1081 55.3637C35.7835 57.2549 32.1842 58.8001 29.4147 59.5249C28.4282 59.783 26.9891 59.8726 26.3214 59.7172C24.9409 59.3962 24.2961 58.7049 22.8402 55.9853C21.9779 54.3744 18.6718 47.6624 18.6718 47.5226C18.6718 47.5025 18.5472 47.2141 18.3949 46.8817C17.7257 45.421 16.9488 43.5809 16.9488 43.4567C16.9488 43.4169 17.1534 43.3601 17.4035 43.3304C17.6536 43.3009 18.1812 43.1842 18.5761 43.0712C19.3195 42.8584 20.4989 42.562 21.041 42.4516C21.3225 42.3943 21.3681 42.4183 21.5196 42.7036C21.9793 43.5697 23.4573 44.7898 24.7637 45.3817C26.1812 46.0239 27.3726 46.0328 28.6746 45.411C30.2176 44.6741 31.156 43.4576 31.6968 41.4936C31.9741 40.4863 32.008 38.7806 31.7598 38.3206C31.6694 38.1531 31.6179 37.9594 31.6453 37.8902C31.6726 37.8212 31.9847 37.5951 32.3386 37.3878C33.3019 36.8235 34.2645 36.1734 35.5417 35.2244C36.173 34.7554 36.7251 34.3937 36.7687 34.4206C36.8121 34.4474 37.2516 35.2754 37.7452 36.2605Z" fill="#EA7F49"/>
</svg>
