<svg width="48" height="48" viewBox="0 0 48 48" fill="none" xmlns="http://www.w3.org/2000/svg">
<path fill-rule="evenodd" clip-rule="evenodd" d="M39.2175 43.3265C40.5517 43.2264 42.0217 42.909 43.0236 42.5048C43.8855 42.157 44.5241 41.7236 45.3419 40.9313C46.4031 39.9032 47.004 38.8533 47.4956 37.1686C47.731 36.3614 47.899 35.5724 47.899 35.2728C47.899 35.1802 47.9215 35.0905 47.949 35.0733C48.017 35.0309 48.017 32.4902 47.949 32.4478C47.9215 32.4307 47.899 32.3375 47.899 32.2408C47.899 32.0684 47.7929 31.4598 47.7019 31.1099C47.6766 31.0127 47.6187 30.7741 47.5731 30.5797C47.4759 30.1654 47.4739 30.1593 47.175 29.3525C46.968 28.7936 46.7291 28.2892 46.3574 27.6261C46.0645 27.1034 45.3835 26.1657 45.0886 25.8788C44.3504 25.1606 43.4165 24.5858 42.4789 24.2726C42.1811 24.1732 41.8951 24.0918 41.8433 24.0918C41.7915 24.0918 41.6974 24.0717 41.6342 24.0471C41.5258 24.005 40.9998 23.8793 40.6686 23.8164C40.0927 23.707 39.3614 23.6331 38.3669 23.5838C37.3876 23.5352 37.1004 23.5386 36.4405 23.6064C35.301 23.7235 34.8985 23.8111 34.3138 24.0689C34.2312 24.1053 34.0536 24.1827 33.9192 24.2408C32.9907 24.6425 31.6982 25.7388 31.0217 26.6987C30.9264 26.8338 30.8312 27.0012 30.8101 27.0704C30.657 27.5734 31.0526 28.0805 31.5981 28.0805C31.8921 28.0805 32.0084 28.0145 32.3102 27.6766C33.0821 26.8121 33.9697 26.1367 34.6718 25.8794C35.5119 25.5716 35.6948 25.5482 37.0861 25.5698C38.2901 25.5885 38.7863 25.634 39.6428 25.8047C39.7667 25.8294 39.9919 25.873 40.1432 25.9016C40.2946 25.9303 40.5535 25.9974 40.7186 26.0508C40.8838 26.1043 41.154 26.189 41.3191 26.2391C41.5956 26.3229 41.8744 26.4555 42.4344 26.7693C42.7963 26.9722 43.5612 27.7388 43.863 28.201C44.139 28.6239 44.4726 29.2609 44.593 29.5952C44.6629 29.7893 44.7062 29.9035 44.7888 30.1113C44.8922 30.372 45.0893 31.1868 45.1646 31.6652C45.3172 32.6353 45.3017 33.9065 45.126 34.8208C45.0833 35.043 45.0254 35.38 44.9972 35.5698C44.9338 35.997 44.7044 36.6912 44.494 37.0929C44.3131 37.4383 44.1395 37.7374 44.0985 37.7745C44.0831 37.7884 44.0054 37.8906 43.9258 38.0017C43.5765 38.4889 42.8859 39.0667 42.1913 39.4528C41.3333 39.9298 39.6045 40.2282 37.9916 40.1777C37.0389 40.1479 36.7842 40.119 35.9901 39.951C35.5311 39.8538 34.6084 39.5749 34.3139 39.4443C34.2589 39.42 34.0562 39.3363 33.8636 39.2585C33.6709 39.1806 33.4293 39.0649 33.3267 39.0011C33.224 38.9374 33.1272 38.8853 33.1116 38.8853C32.9573 38.8853 32.1097 38.141 31.5494 37.5136C30.9371 36.828 30.1983 35.6701 29.9212 34.9619C29.8755 34.845 29.7955 34.6519 29.7435 34.5327C29.4438 33.8462 29.1774 32.7023 29.0874 31.7157C28.9548 30.2614 28.9319 29.8626 28.9294 28.964C28.9264 27.9343 29.0081 26.3465 29.0853 25.9347C29.1113 25.7958 29.1692 25.4209 29.214 25.1016C29.2824 24.6133 29.479 23.6657 29.6906 22.8043C29.7995 22.3608 30.4894 20.2774 30.6603 19.8759C30.6957 19.7926 30.7544 19.6335 30.7907 19.5225C30.8271 19.4114 30.8746 19.2989 30.8966 19.2725C30.9185 19.2461 30.9364 19.1956 30.9364 19.1603C30.9364 19.125 30.9954 18.9648 31.0675 18.8044C31.1396 18.6439 31.2312 18.4332 31.271 18.336C31.4091 17.9991 31.4269 17.9564 31.5032 17.7806C31.6087 17.5372 32.3778 15.9069 32.4363 15.8026C32.4624 15.7561 32.5718 15.5516 32.6794 15.3482C32.787 15.1448 32.9309 14.8762 32.9991 14.7512C33.0673 14.6262 33.2071 14.3679 33.3098 14.1772C33.4125 13.9864 33.5961 13.6738 33.7176 13.4824C33.8391 13.2911 33.9386 13.1229 33.9386 13.1087C33.9386 13.0296 35.4278 10.7419 35.6801 10.4335C36.0173 10.0213 36.087 9.51975 35.8568 9.16158C35.609 8.77589 35.1513 8.61427 34.7818 8.78205C34.4936 8.91292 34.4237 8.98224 33.9813 9.576C33.0976 10.7621 32.7328 11.2759 32.3862 11.8228C32.1838 12.1421 31.9464 12.5057 31.8587 12.6306C31.701 12.8553 30.9364 14.1295 30.9364 14.1678C30.9364 14.1786 30.799 14.4223 30.631 14.7092C30.3288 15.2255 29.1272 17.6181 28.9745 18.0078C28.931 18.1189 28.8367 18.3389 28.765 18.4968C28.6933 18.6547 28.6347 18.7961 28.6347 18.8111C28.6347 18.8261 28.5643 18.9923 28.4783 19.1804C28.3347 19.4946 28.2388 19.7428 27.9365 20.5828C27.8293 20.8806 27.7117 21.1917 27.631 21.3906C27.5792 21.5186 27.3688 22.1778 27.2847 22.4761C27.2495 22.6011 27.19 22.7942 27.1525 22.9053C26.9511 23.5017 26.5605 25.2432 26.439 26.0861C26.2637 27.3022 26.2009 28.0469 26.1539 29.4689C26.1286 30.2339 26.1441 30.6892 26.2304 31.7157C26.3328 32.9342 26.3594 33.1544 26.4768 33.7606C26.6038 34.4159 26.9553 35.6055 27.1332 35.9821C27.1857 36.0932 27.3099 36.3772 27.4093 36.6132C27.6148 37.1012 28.2928 38.3154 28.4929 38.5536C28.5178 38.5833 28.6331 38.7457 28.7491 38.9146C29.0567 39.3623 29.5225 39.891 30.2072 40.5693C30.8081 41.1647 31.1509 41.4089 32.0122 41.8555C32.5364 42.1273 33.4702 42.5186 33.9665 42.6744C34.1576 42.7343 34.3589 42.8016 34.414 42.8237C34.469 42.8459 34.6942 42.9015 34.9143 42.9474C35.1345 42.9932 35.3934 43.0505 35.4898 43.0748C36.3665 43.2955 38.0848 43.4116 39.2175 43.3265ZM13.6736 41.1248C14.2067 41.0465 14.5955 40.9459 15.525 40.6455C16.0283 40.4829 17.0762 39.8829 17.6766 39.4135C18.0154 39.1487 18.6424 38.5287 18.9062 38.1978C19.0142 38.0622 19.135 37.9172 19.1747 37.8755C19.3331 37.7089 19.8452 36.862 20.0753 36.386C20.4222 35.6686 20.5541 35.2709 20.7784 34.2655C20.8032 34.1544 20.8489 33.8136 20.8799 33.5081C20.9908 32.4178 20.8433 30.9934 20.4982 29.8224C20.3013 29.1539 20.2756 29.0856 20.0152 28.5349C19.5419 27.534 19.0103 26.7854 18.2124 25.9964C17.775 25.5639 16.9923 24.9501 16.8781 24.9501C16.8562 24.9501 16.8116 24.9177 16.7791 24.8782C16.7201 24.8065 16.4844 24.6845 15.6536 24.2954C15.1728 24.0702 14.6129 23.883 14.149 23.7922C13.9838 23.7599 13.7455 23.7107 13.6193 23.6829C13.0258 23.552 10.6564 23.5524 10.0782 23.6834C9.95034 23.7124 9.59808 23.7724 9.29535 23.8169C8.19849 23.9777 6.73736 24.5073 5.93231 25.0356C5.08193 25.5937 4.43846 26.2742 3.98397 27.0959C3.85963 27.3208 3.87064 27.8954 4.00428 28.1585C4.12502 28.396 4.4987 28.7606 4.67213 28.81C4.73808 28.8288 4.83705 28.8623 4.89209 28.8845C5.3108 29.0532 5.46497 29.0701 5.65766 28.9686C5.83689 28.8741 5.93256 28.6669 6.09083 28.03C6.36658 26.9204 6.61807 26.6163 7.59409 26.2127C8.09276 26.0064 8.65718 25.86 9.45623 25.7298C9.86698 25.6628 10.201 25.6513 11.1575 25.6711C11.8121 25.6847 12.4377 25.7191 12.5478 25.7476C12.6578 25.7761 12.9055 25.8263 13.0982 25.8592C14.3077 26.0655 15.6401 26.8315 16.4721 27.7986C16.8177 28.2003 17.4764 29.1784 17.4764 29.2897C17.4764 29.3173 17.5296 29.4598 17.5946 29.6064C17.7867 30.0398 17.815 30.1212 17.8995 30.4851C17.9438 30.676 18.0002 30.9117 18.0247 31.0089C18.1438 31.4802 18.19 32.3205 18.1281 32.8863C18.0941 33.1969 18.0487 33.498 18.0272 33.5553C18.0057 33.6127 17.9596 33.7845 17.9248 33.9373C17.8899 34.09 17.786 34.3798 17.6939 34.5812C17.6018 34.7827 17.5265 34.962 17.5265 34.9797C17.5265 35.1013 16.8854 36.0058 16.5534 36.3527C15.8951 37.0405 14.8188 37.7281 14.174 37.8729C14.0226 37.9069 13.8155 37.9561 13.7137 37.9821C13.612 38.0081 13.2292 38.0602 12.8631 38.0977C11.678 38.2193 10.3604 38.0296 9.39543 37.5985C8.41155 37.1589 7.82031 36.7873 7.23438 36.2404C7.04694 36.0654 6.80351 35.8457 6.69343 35.752C6.58334 35.6584 6.24895 35.3424 5.95033 35.0499C4.84776 33.9696 4.00423 32.6334 3.44697 31.0846C3.29191 30.6536 3.09621 29.8952 3.01705 29.4184C2.98478 29.2241 2.93894 28.9491 2.91513 28.8074C2.84783 28.4062 3.01981 25.8534 3.16146 25.1521C3.18668 25.0271 3.23436 24.7545 3.26744 24.5462C3.31983 24.216 3.44822 23.6388 3.62115 22.9558C3.64927 22.8447 3.72743 22.572 3.79478 22.3499C3.86218 22.1277 3.94379 21.8551 3.97616 21.744C4.21804 20.9143 4.92382 19.2958 5.5724 18.0835C5.86206 17.5421 6.68792 16.194 6.82713 16.0354C6.87741 15.9781 6.91859 15.9163 6.91859 15.8982C6.91859 15.854 7.65409 14.8034 8.14576 14.1453C9.32748 12.5637 11.3628 10.4719 12.7229 9.44129C12.8192 9.36833 12.95 9.25872 13.0135 9.19778C13.1344 9.08175 14.5991 8.03404 14.8846 7.85935C16.062 7.13896 16.3354 6.91019 16.4263 6.56928C16.537 6.15461 16.2808 5.63033 15.8949 5.48159C15.5608 5.35284 15.3205 5.4105 14.694 5.76978C14.3942 5.9417 14.051 6.1377 13.9313 6.2053C12.756 6.86929 11.2869 7.91418 9.92757 9.05297C8.83451 9.96865 7.29943 11.4869 6.57114 12.3726C6.44884 12.5213 6.32491 12.6686 6.29573 12.6999C6.21187 12.7898 5.45326 13.7562 5.34243 13.9143C5.28738 13.9928 5.19557 14.1166 5.13837 14.1895C4.98951 14.3792 4.18602 15.528 4.16155 15.586C4.15029 15.6128 3.99273 15.862 3.81144 16.1397C3.63016 16.4174 3.42205 16.7533 3.3489 16.886C3.27579 17.0189 3.18357 17.1779 3.14394 17.2395C3.0182 17.435 2.67245 18.0915 2.42026 18.6137C1.8037 19.8902 1.38609 20.9632 1.01517 22.2237C0.953873 22.4319 0.885071 22.6591 0.862206 22.7286C0.839336 22.798 0.761833 23.1047 0.68998 23.4102C0.618076 23.7156 0.539368 24.0451 0.515049 24.1423C0.43499 24.4621 0.309345 25.2052 0.160736 26.2376C-0.0520744 27.7161 -0.0536728 29.2493 0.156582 30.1505C0.185753 30.2755 0.268265 30.6277 0.33997 30.9331C0.465263 31.4668 0.799911 32.5361 0.940414 32.8517C1.11159 33.2363 1.57203 34.1847 1.6757 34.3664C1.73911 34.4775 1.8683 34.7047 1.96282 34.8713C2.14661 35.1954 2.8767 36.2053 3.16581 36.5356C3.35625 36.7531 3.81089 37.2599 3.89135 37.3442C4.27093 37.7425 5.82508 39.0423 6.34317 39.3948C7.10698 39.9144 8.29541 40.5022 8.92603 40.6724C9.07409 40.7123 9.34164 40.7909 9.52052 40.8469C9.69941 40.903 9.99212 40.9746 10.171 41.0061C10.3499 41.0376 10.6088 41.0868 10.7464 41.1153C11.1817 41.2058 13.0801 41.2119 13.6736 41.1248Z" fill="#3C8F73"/>
</svg>
