<svg width="28" height="28" viewBox="0 0 28 28" fill="none" xmlns="http://www.w3.org/2000/svg">
<path fill-rule="evenodd" clip-rule="evenodd" d="M12.1328 0.348581C11.9166 0.475591 11.7336 0.702538 11.6089 0.998352C11.4361 1.40826 11.4268 1.59509 11.5143 2.9039C11.6959 5.62146 11.052 8.30272 9.85481 9.8142C9.46319 10.3086 8.48973 11.1452 8.17529 11.2575C8.06929 11.2954 7.74523 11.4291 7.45516 11.5546C6.43334 11.9969 5.65335 12.138 3.38796 12.291C1.27708 12.4336 1.19868 12.4459 1.0054 12.6675C0.86107 12.8331 0.8114 13.0244 0.826667 13.3562C0.844339 13.7417 0.893835 13.8505 1.13383 14.0311C1.29123 14.1497 1.5874 14.2632 1.792 14.2833C1.9966 14.3035 2.29497 14.3524 2.45489 14.3919C2.6149 14.4315 2.95701 14.4497 3.21525 14.4325C3.69017 14.4007 4.00494 14.5532 4.02303 14.8238C4.03614 15.0201 4.46254 15.2809 4.96244 15.3985C7.71624 16.046 9.49176 16.7746 10.7686 17.7808C11.4525 18.3197 12.4029 19.6565 12.7222 20.5288C12.7903 20.7148 12.9593 22.1736 13.0978 23.7705C13.3909 27.1526 13.396 27.168 14.3416 27.573C14.9682 27.8414 15.3014 27.8462 15.8054 27.5942C16.6874 27.1531 16.8546 26.7145 16.7488 25.12C16.6886 24.2114 16.7008 23.8002 16.7944 23.5865C16.8647 23.4257 16.9187 23.2412 16.9143 23.1762C16.9025 22.9988 17.3804 21.7859 17.8787 20.7287C18.5591 19.2851 19.5196 18.2307 21.1543 17.1327C22.3014 16.3622 23.7839 15.5385 24.7766 15.1199C25.6824 14.7381 26.0517 14.547 26.6872 14.1317C27.1157 13.8515 27.7055 13.1361 27.874 12.692C28.2088 11.8097 27.8189 10.8716 26.8838 10.3095C26.4918 10.0739 26.3797 10.059 25.1745 10.0812C23.9181 10.1044 23.6802 10.0832 22.5354 9.84575C21.6075 9.65344 21.3959 9.58205 19.7488 8.9058C17.9692 8.17516 16.8569 7.15539 16.1925 5.64557C16.018 5.24887 15.7758 4.70821 15.6546 4.44407C15.5333 4.17994 15.3684 3.72321 15.2883 3.4291C14.6753 1.17853 14.5328 0.827502 14.0822 0.457277C13.6184 0.0762554 12.6847 0.0241191 12.1328 0.348581ZM15.8577 10.8878C16.7828 11.6969 17.5773 12.1816 19.0267 12.8206C20.2792 13.3728 20.2818 13.3754 19.8541 13.6415C18.8663 14.2562 17.4071 15.4587 16.7485 16.2009C16.4086 16.584 15.5561 17.764 15.2996 18.2066C15.1779 18.4163 15.0558 18.5898 15.0282 18.5921C15.0005 18.5943 14.7277 18.2677 14.4219 17.8661C13.9103 17.1944 12.9255 16.2311 12.2435 15.7355C11.8247 15.4311 10.354 14.6533 9.88139 14.4862C9.65322 14.4055 9.24438 14.2553 8.97278 14.1524L8.47898 13.9653L8.77691 13.755C8.94076 13.6394 9.42581 13.3383 9.85481 13.0859C10.6589 12.6129 11.7976 11.6795 12.1779 11.1816C12.2967 11.026 12.59 10.5631 12.8295 10.1529C13.069 9.74275 13.4007 9.23689 13.5667 9.02879L13.8685 8.65036L14.4305 9.3907C14.7397 9.7979 15.382 10.4716 15.8577 10.8878Z" fill="#FFCC7B"/>
</svg>
