<svg width="72" height="72" viewBox="0 0 72 72" fill="none" xmlns="http://www.w3.org/2000/svg">
<path fill-rule="evenodd" clip-rule="evenodd" d="M43.0132 2.32656C42.8965 2.50623 42.5733 3.10544 42.295 3.65815C42.0166 4.21087 41.7793 4.67306 41.7675 4.6852C41.7557 4.69726 41.2455 4.80772 40.6336 4.93058C38.282 5.40282 37.7913 5.6773 37.6915 6.57589C37.5987 7.41052 38.2308 7.91491 40.1758 8.55807C40.7466 8.74692 41.2859 8.90133 41.3745 8.90133C41.5832 8.90133 41.5974 8.93025 41.72 9.60138C41.9895 11.0778 42.2563 11.5443 42.9124 11.687C43.5787 11.832 44.0721 11.6216 44.3517 11.0733C44.4166 10.946 44.5716 10.533 44.6961 10.1556C45.0258 9.1565 45.1297 9.00846 45.5454 8.94633C45.7381 8.91749 46.1672 8.8537 46.4988 8.80459C47.472 8.6604 48.1549 8.46108 48.3232 8.27223C48.4429 8.13783 48.48 7.95424 48.4798 7.49817C48.4794 6.93374 48.4625 6.88279 48.1783 6.58498C47.8526 6.24374 47.1708 5.88082 46.2835 5.57611C45.9755 5.47028 45.6803 5.34899 45.6274 5.30652C45.5746 5.26396 45.485 4.9838 45.4284 4.68398C45.2236 3.59864 44.9381 2.6609 44.6975 2.28287C44.5209 2.00533 44.5054 2 43.8714 2H43.2254L43.0132 2.32656ZM55.7815 16.0412C55.5275 16.0909 55.0701 16.56 55.0701 16.7708C55.0701 17.0021 54.7437 17.1948 54.1981 17.2857C53.9433 17.3282 53.5604 17.4023 53.3472 17.4505C52.7534 17.5848 52.0774 17.7058 51.3659 17.8052C50.732 17.8937 49.2861 18.0974 48.1786 18.2542C47.8707 18.2978 47.1729 18.3956 46.628 18.4714C42.8871 18.9923 39.6577 19.8697 37.4537 20.9639C35.4292 21.969 34.6451 23.09 35.1609 24.2418C35.3769 24.7244 35.5527 24.8944 36.8938 25.9175C40.0912 28.3568 39.9775 28.2529 39.7425 28.5195C39.6577 28.6157 38.9143 29.7693 38.0903 31.0832C37.2665 32.397 36.5342 33.5638 36.4631 33.6759C36.392 33.7881 35.8908 34.5809 35.3494 35.4379C34.2908 37.1135 32.1544 40.2218 31.4258 41.1468C31.1796 41.4593 30.8492 41.9508 30.6915 42.2392C30.5337 42.5275 30.311 42.9342 30.1964 43.1428C30.0818 43.3514 29.8425 43.7556 29.6646 44.041L29.3413 44.5598L28.6596 44.0799C26.8421 42.8005 24.2104 41.0439 23.6708 40.7499C23.3391 40.5693 22.8545 40.302 22.594 40.156C21.848 39.738 20.9582 39.3105 20.2681 39.0387C19.842 38.8709 18.9988 38.8979 18.6314 39.0912C18.1508 39.344 17.4042 39.9578 16.9095 40.5069C16.4679 40.9971 15.7886 41.8823 15.7886 41.9675C15.7886 42.0843 13.9469 44.9407 10.3171 50.4535C8.10194 53.8178 6.21427 56.7403 6.12227 56.9478C5.56992 58.1939 7.01153 59.1806 7.99856 58.232C8.04922 58.1833 8.43376 57.6912 8.85302 57.1385C9.79216 55.9003 9.87649 55.7936 11.0262 54.3859C11.8811 53.3391 12.2406 52.9261 13.1491 51.9475C13.3319 51.7506 13.7777 51.258 14.1397 50.8529C14.5017 50.4478 14.9336 49.9721 15.0995 49.7956C17.0961 47.6718 17.5334 47.1624 18.5863 45.7346C19.5341 44.4493 19.9841 43.9429 20.1779 43.9437C20.2512 43.9441 20.5024 44.1106 20.7362 44.3138C20.9699 44.5171 21.6744 45.0181 22.3018 45.4275C26.8464 48.3925 28.3767 49.3561 28.6725 49.4394C29.5564 49.6884 30.486 49.4185 31.1667 48.7153C31.4044 48.4697 31.6951 48.1331 31.8128 47.9672C31.9304 47.8012 32.1936 47.455 32.3976 47.1977C32.7591 46.742 34.6541 43.8842 35.0848 43.1454C35.2032 42.9422 35.4261 42.5824 35.5801 42.3459C35.7341 42.1093 35.8601 41.9024 35.8601 41.8861C35.8601 41.8698 36.0927 41.4781 36.3769 41.0158C36.6612 40.5534 36.8938 40.1582 36.8938 40.1375C36.8938 40.1169 37.0607 39.8341 37.2646 39.5092C37.6184 38.9458 37.9301 38.38 38.7461 36.8212C38.9475 36.4367 39.2281 35.9059 39.3697 35.6415C39.5115 35.3772 39.8788 34.6693 40.1862 34.0686C41.1356 32.213 41.8177 30.8964 42.0424 30.4857C42.1942 30.2084 42.2579 29.9584 42.2585 29.6372C42.2592 29.2735 42.2998 29.1433 42.4611 28.9897C42.572 28.8839 42.687 28.6661 42.7168 28.5056C42.824 27.9257 42.7025 27.6913 41.7054 26.5533C41.1788 25.9526 40.598 25.2899 40.4146 25.0807C40.0549 24.6705 39.9921 24.4559 40.2319 24.4563C40.4149 24.4566 41.3039 24.256 42.407 23.9656C44.3766 23.4469 48.3266 22.4265 48.5232 22.3855C48.7158 22.3454 50.9062 21.6633 51.8687 21.3437C52.0741 21.2756 52.8014 21.0014 53.4849 20.7345C54.1683 20.4675 54.795 20.2622 54.8773 20.2782C55.0117 20.3043 55.0331 20.4994 55.087 22.1851C55.1199 23.2178 55.1859 25.0853 55.2335 26.3349C55.4304 31.5007 55.5276 35.2631 55.4701 35.4938L55.4088 35.7394L54.9595 35.4093C54.7123 35.2278 54.4908 35.0582 54.4671 35.0325C54.4434 35.0068 54.0859 34.6975 53.6728 34.3451C53.2595 33.9926 52.682 33.4304 52.3893 33.0955C52.0967 32.7607 51.7487 32.4297 51.6159 32.3601C51.0621 32.0696 50.4084 32.3097 50.1037 32.9157C49.9495 33.2225 49.9333 33.3337 50.007 33.5775C50.0924 33.8598 50.0722 33.901 49.4628 34.6905C49.1148 35.1415 48.8061 35.5301 48.7768 35.5541C48.7475 35.5782 48.5912 35.78 48.4296 36.0028C48.2679 36.2255 47.7285 36.9294 47.231 37.567C46.7336 38.2046 46.0812 39.0448 45.7814 39.4341C45.4815 39.8234 45.1327 40.2601 45.0061 40.4047C44.8795 40.5491 44.6604 40.8244 44.5193 41.0164C44.3781 41.2083 44.1792 41.4636 44.0771 41.5838C43.9752 41.7039 43.5271 42.2545 43.0816 42.8072C42.636 43.3599 42.19 43.9104 42.0903 44.0306C41.9907 44.1507 41.5714 44.662 41.1585 45.1666C40.7457 45.6713 40.2859 46.222 40.1368 46.3903C39.9877 46.5587 39.6525 46.9506 39.392 47.2611C39.1314 47.5717 38.86 47.8883 38.789 47.9649C38.7179 48.0414 38.4078 48.3954 38.0998 48.7517C36.4135 50.7029 31.1105 56.251 30.3073 56.9047C30.0338 57.1273 29.8867 57.1822 29.5647 57.1822C29.1976 57.1822 29.0906 57.1259 28.3122 56.5229C26.5574 55.1636 26.0363 54.8297 24.4461 54.0451C22.4507 53.0607 21.4265 52.8543 20.6338 53.2768C20.0162 53.6061 17.9221 55.5027 15.743 57.7065C13.4393 60.0363 12.6624 60.873 10.9215 62.8985C10.3803 63.5282 6.98552 67.3606 6.78075 67.5731C6.38036 67.9885 6.05439 68.5428 6.05439 68.8083C6.05439 69.5153 6.56212 70.0098 7.27789 69.9999C7.73505 69.9935 7.91595 69.8612 9.33034 68.4987C10.004 67.8499 10.588 67.2977 10.6284 67.2716C10.6687 67.2455 11.1005 66.8326 11.588 66.354C13.2638 64.709 16.6535 61.5725 17.3196 61.0505C17.4873 60.9191 17.7832 60.6635 17.9772 60.4825C18.7557 59.756 21.446 57.6622 21.5991 57.6638C21.8651 57.6666 22.6054 57.9676 23.0631 58.2591C23.35 58.4418 24.3367 59.1309 25.2561 59.7906C27.1343 61.1383 27.6848 61.4714 28.7625 61.9123C29.3742 62.1624 29.6269 62.2194 30.1331 62.2215C30.8251 62.2242 30.9545 62.1701 32.0267 61.4284C33.0245 60.7382 37.6973 55.8599 39.4248 53.705C39.6479 53.4267 39.8862 53.1318 39.9542 53.0496C40.1884 52.767 41.9335 50.5306 42.1486 50.2373C42.267 50.0759 42.5324 49.7242 42.7383 49.4558C43.0466 49.054 43.7809 48.032 45.3789 45.7808C45.4737 45.6472 45.8539 45.0907 46.2237 44.544C46.5935 43.9973 47.2556 43.0191 47.695 42.3703C48.7596 40.7984 50.5974 38.044 51.1787 37.1489C51.4363 36.7524 51.6741 36.428 51.7074 36.428C51.7407 36.428 51.8975 36.5918 52.0561 36.792C52.2147 36.9922 52.5001 37.2969 52.6904 37.4692C52.8807 37.6415 53.1612 37.9004 53.3138 38.0446C53.4664 38.1888 53.8737 38.5231 54.2189 38.7874C54.5642 39.0518 54.9141 39.3467 54.9966 39.4428C55.0791 39.5389 55.2712 39.7674 55.4233 39.9504C55.5753 40.1334 55.8747 40.4053 56.0885 40.5545C56.4305 40.7932 56.5504 40.8264 57.0873 40.8312C58.3889 40.8427 59.1227 40.1865 59.6659 38.5253C59.9235 37.7378 60.0024 36.2468 59.9389 33.3695C59.8789 30.6466 59.7995 29.3678 59.638 28.5195C59.535 27.9789 59.3073 26.5264 59.2065 25.7669C59.165 25.4545 59.0663 24.8646 58.9871 24.4561C58.908 24.0475 58.8119 23.5167 58.7736 23.2764C58.7353 23.0361 58.6227 22.4265 58.5232 21.9219C58.4238 21.4172 58.3038 20.8077 58.2565 20.5674C58.2093 20.3271 58.0711 19.5996 57.9494 18.9507C57.5166 16.6412 57.4329 16.4223 56.873 16.1327C56.5936 15.9882 56.2149 15.9565 55.7815 16.0412ZM59.7579 47.7074C59.2655 47.8524 59.1528 48.0982 58.8997 49.5796C58.7272 50.5892 58.6039 50.8467 58.2932 50.8467C58.1728 50.8467 57.8733 50.9105 57.6275 50.9885C55.3303 51.7173 54.3103 52.1552 53.8706 52.6013C53.6656 52.8092 53.6057 52.947 53.6057 53.21C53.6057 53.9338 54.4662 54.4144 56.3192 54.7256C56.7456 54.7972 57.3938 54.8824 57.7598 54.9149C58.1257 54.9474 58.4579 55.0186 58.498 55.0732C58.5382 55.1277 58.6142 55.3296 58.6671 55.5219C59.3886 58.1457 59.9606 59.3003 60.6318 59.4883C61.1854 59.6434 61.664 59.3902 61.9712 58.7796C62.2858 58.1545 62.6036 56.6398 62.7043 55.2864C62.7708 54.3935 62.7494 54.4159 63.8137 54.1228C64.098 54.0445 64.4856 53.9379 64.6751 53.886C65.5304 53.6515 66.3339 53.344 66.5805 53.1566C66.9362 52.8865 67.0869 52.32 66.9499 51.7682C66.7669 51.031 66.3256 50.9004 63.2639 50.6768C62.5783 50.6268 62.1576 50.5573 62.0862 50.4825C62.025 50.4184 61.8381 49.9591 61.6709 49.4618C61.2681 48.2646 61.1061 47.9666 60.7526 47.7744C60.4343 47.6012 60.1772 47.5839 59.7579 47.7074Z" fill="#EA7F49"/>
</svg>
