<?xml version="1.0" standalone="no"?>
<!DOCTYPE svg PUBLIC "-//W3C//DTD SVG 20010904//EN"
 "http://www.w3.org/TR/2001/REC-SVG-20010904/DTD/svg10.dtd">
<svg version="1.0" xmlns="http://www.w3.org/2000/svg"
 width="700.000000pt" height="700.000000pt" viewBox="0 0 700.000000 700.000000"
 preserveAspectRatio="xMidYMid meet">
<metadata>
Created by potrace 1.14, written by Peter Selinger 2001-2017
</metadata>
<g transform="translate(0.000000,700.000000) scale(0.100000,-0.100000)"
fill="#000000" stroke="none">
<path d="M3205 6989 c-599 -51 -1176 -257 -1674 -596 -684 -466 -1188 -1168
-1405 -1958 -77 -283 -114 -533 -123 -835 -28 -970 334 -1883 1018 -2569 1260
-1265 3266 -1380 4659 -268 670 535 1127 1304 1269 2137 37 217 46 331 46 600
0 426 -49 733 -177 1115 -390 1162 -1373 2045 -2568 2304 -332 73 -715 98
-1045 70z m1937 -1636 c-6 -220 -6 -362 0 -370 6 -8 65 12 216 74 266 109 261
108 273 96 7 -7 -55 -66 -180 -174 -105 -90 -190 -168 -188 -174 2 -5 153 -71
337 -145 184 -74 335 -141 338 -147 5 -17 -60 -17 -413 2 -353 18 -335 19
-335 -1 0 -9 43 -115 95 -236 52 -121 95 -226 95 -234 0 -32 -32 -4 -184 158
-131 139 -162 167 -171 155 -6 -8 -136 -570 -289 -1248 -162 -721 -287 -1255
-301 -1285 -39 -87 -118 -129 -229 -122 -76 5 -132 32 -169 84 -17 25 -135
346 -332 909 -168 478 -310 874 -315 879 -6 6 -13 6 -18 1 -5 -6 -114 -390
-241 -855 -147 -531 -243 -863 -259 -894 -46 -84 -117 -126 -213 -126 -67 0
-116 18 -159 56 -49 45 -63 83 -100 274 -126 643 -336 1163 -594 1467 -111
131 -130 196 -81 279 46 79 160 107 251 63 24 -11 77 -56 119 -101 201 -214
342 -510 506 -1070 48 -162 68 -218 80 -218 12 0 63 177 233 803 136 498 230
824 247 859 40 79 80 122 140 148 64 27 117 22 182 -20 86 -54 94 -73 405
-963 160 -456 293 -831 296 -835 4 -3 11 -1 17 5 16 16 458 1937 449 1947 -5
5 -87 -19 -197 -58 -181 -64 -223 -75 -223 -58 0 4 86 83 190 176 105 92 190
173 190 180 0 7 -148 71 -336 146 -293 117 -360 149 -343 164 2 2 150 -5 329
-15 400 -22 420 -23 420 -6 0 7 -45 116 -99 242 -64 150 -95 233 -89 240 6 7
71 -54 188 -175 117 -121 182 -182 188 -175 5 6 62 152 127 325 65 173 122
323 127 334 27 51 30 -9 20 -361z"/>
</g>
</svg>
